<?xml version="1.0" encoding="UTF-8" standalone="no"?>
<!-- Created with Inkscape (http://www.inkscape.org/) -->

<svg
   xmlns:dc="http://purl.org/dc/elements/1.1/"
   xmlns:cc="http://creativecommons.org/ns#"
   xmlns:rdf="http://www.w3.org/1999/02/22-rdf-syntax-ns#"
   xmlns:svg="http://www.w3.org/2000/svg"
   xmlns="http://www.w3.org/2000/svg"
   xmlns:sodipodi="http://sodipodi.sourceforge.net/DTD/sodipodi-0.dtd"
   xmlns:inkscape="http://www.inkscape.org/namespaces/inkscape"
   width="21.257507mm"
   height="5.6288199mm"
   viewBox="0 0 21.257507 5.62882"
   version="1.1"
   id="svg4539"
   inkscape:version="0.92.2 5c3e80d, 2017-08-06"
   sodipodi:docname="logo-GOLEM-text.svg">
  <defs
     id="defs4533" />
  <sodipodi:namedview
     id="base"
     pagecolor="#ffffff"
     bordercolor="#666666"
     borderopacity="1.0"
     inkscape:pageopacity="0.0"
     inkscape:pageshadow="2"
     inkscape:zoom="0.49497475"
     inkscape:cx="-252.1922"
     inkscape:cy="204.6873"
     inkscape:document-units="mm"
     inkscape:current-layer="layer1"
     showgrid="false"
     fit-margin-top="0"
     fit-margin-left="0"
     fit-margin-right="0"
     fit-margin-bottom="0"
     inkscape:window-width="1366"
     inkscape:window-height="703"
     inkscape:window-x="0"
     inkscape:window-y="0"
     inkscape:window-maximized="1" />
  <metadata
     id="metadata4536">
    <rdf:RDF>
      <cc:Work
         rdf:about="">
        <dc:format>image/svg+xml</dc:format>
        <dc:type
           rdf:resource="http://purl.org/dc/dcmitype/StillImage" />
        <dc:title></dc:title>
      </cc:Work>
    </rdf:RDF>
  </metadata>
  <g
     inkscape:label="Livello 1"
     inkscape:groupmode="layer"
     id="layer1"
     transform="translate(-68.712679,-228.0652)">
    <path
       style="clip-rule:evenodd;display:inline;fill:#1f1e21;fill-rule:nonzero;stroke-width:0.27114055;image-rendering:optimizeQuality;shape-rendering:geometricPrecision;text-rendering:geometricPrecision"
       inkscape:connector-curvature="0"
       d="m 73.07686,231.95526 c -0.02695,0.0269 -0.04115,0.061 -0.04115,0.0993 -0.05531,0.034 -0.08369,0.0809 -0.08369,0.14185 l 0.04258,-0.034 c -0.122015,0.0837 -0.185864,0.19149 -0.19155,0.32487 -0.04397,0.0553 -0.119155,0.13053 -0.224158,0.22416 -0.01704,-0.006 -0.03407,-0.009 -0.04965,-0.009 -0.133387,0 -0.185868,0.0554 -0.158912,0.16599 -0.03829,0.006 -0.08512,0.009 -0.140464,0.009 l 0.0085,-0.0411 -0.05105,-0.0171 c -0.03264,0.0114 -0.04966,0.0256 -0.04966,0.0426 l 0.01704,0.0241 c -0.06667,0.006 -0.16034,0.0312 -0.282324,0.0753 l -0.150397,0.0255 c -0.01135,-0.0397 -0.0213,-0.0582 -0.03264,-0.0582 -0.0057,0.01 -0.0085,0.0354 -0.0085,0.0738 h -0.02553 c 0,-0.061 -0.01844,-0.0908 -0.05817,-0.0908 -0.03264,0 -0.04966,0.0185 -0.04966,0.0582 0,0.017 0.0056,0.0354 0.01704,0.0581 l -0.473874,0.0994 c 0.01135,-0.0114 0.02551,-0.0299 0.04115,-0.0582 -0.01561,-0.0227 -0.04397,-0.0298 -0.0823,-0.0241 0.01135,-0.0113 0.01561,-0.0255 0.01561,-0.0426 0,-0.0213 -0.0071,-0.044 -0.02413,-0.0667 v -0.0156 c 0,-0.0341 -0.02551,-0.0639 -0.07518,-0.0922 -0.01135,-0.0213 -0.0355,-0.0468 -0.07522,-0.0752 -0.02695,0.0171 -0.0468,0.0454 -0.05817,0.0837 -0.02127,-0.0227 -0.0468,-0.0326 -0.07375,-0.0326 -0.06671,0 -0.100743,0.0383 -0.100743,0.11636 0,0.0553 0.03121,0.0823 0.0922,0.0823 0.03832,0 0.06954,-0.0142 0.09081,-0.0411 0.01704,0.0439 0.04401,0.0666 0.08373,0.0666 0.01704,0.044 0.04397,0.061 0.08226,0.0497 v 0.017 c 0,0.0213 0.01135,0.0355 0.03407,0.0411 l -0.133384,0.0255 c -0.02695,-0.034 -0.05817,-0.0553 -0.09077,-0.0667 -0.01707,-0.034 -0.0454,-0.0497 -0.08373,-0.0497 -0.03829,0 -0.06385,0.0156 -0.07518,0.0497 l -0.04115,0.0241 h -0.03264 c -0.05105,0 -0.07518,0.017 -0.07518,0.0497 0,0.017 0.01135,0.034 0.03264,0.0511 l -0.0085,0.0241 h -0.116385 c -0.05531,0 -0.107823,-0.006 -0.157482,-0.017 0.01704,-0.0156 0.02556,-0.0411 0.02556,-0.0738 h 0.04966 c 0.03829,0.006 0.0695,-0.003 0.09077,-0.0255 0.0227,-0.0213 0.03407,-0.0525 0.03407,-0.0908 0.0213,0 0.03547,-0.009 0.04115,-0.0255 0.0057,-0.0171 0.0057,-0.0355 0,-0.0582 0.02839,-0.0326 0.04115,-0.0667 0.04115,-0.0993 0,-0.0284 -0.01135,-0.0553 -0.03264,-0.0837 0.02127,0.0113 0.04398,0.017 0.06668,0.017 0.09931,0 0.148971,-0.0383 0.148971,-0.11637 0,-0.0283 -0.02551,-0.0709 -0.07804,-0.12909 -0.05391,-0.0581 -0.09363,-0.0865 -0.120589,-0.0865 -0.106392,0 -0.147545,0.0411 -0.124839,0.12341 -0.01135,0.017 -0.01704,0.0341 -0.01704,0.0511 0,0.0383 0.02267,0.0709 0.06667,0.0993 -0.01704,-0.006 -0.03407,-0.008 -0.04965,-0.008 -0.127704,0 -0.191559,0.0496 -0.191559,0.14894 0,0.0397 0.01987,0.0724 0.05817,0.10078 l -0.04112,0.0241 c -0.0057,0 -0.01704,0 -0.03407,0 -0.06099,0 -0.07804,0.0369 -0.04965,0.10926 -0.01135,0.0156 -0.01704,0.0326 -0.01704,0.0497 l 0.01704,0.0412 -0.02551,-0.009 -0.02413,-0.017 c -0.0227,-0.0383 -0.04966,-0.0497 -0.08369,-0.0327 -0.03832,-0.0113 -0.09649,-0.0326 -0.174532,-0.0667 0.04966,0 0.09224,-0.017 0.124873,-0.0497 0,0.0269 0.0056,0.0525 0.01704,0.0752 0.01704,-0.034 0.02127,-0.0752 0.01704,-0.1248 0.0043,-0.0171 0.0071,-0.0312 0.0071,-0.0412 0,-0.11777 -0.06103,-0.17025 -0.181615,-0.15892 -0.03407,-0.017 -0.06385,-0.0241 -0.09223,-0.0241 -0.08369,0 -0.124843,0.0354 -0.124843,0.10782 0,0.0439 0.02839,0.0822 0.08369,0.11634 l 0.03264,0.0496 c -0.09363,-0.0326 -0.160303,-0.061 -0.198625,-0.0837 -0.08369,-0.0439 -0.13335,-0.088 -0.150368,-0.13192 0.02835,-0.0114 0.04966,-0.0256 0.06668,-0.0426 0.02838,0.0114 0.05248,0.017 0.07518,0.017 0.104997,0 0.140464,-0.0553 0.107823,-0.16596 0.110683,0 0.165989,-0.0469 0.165989,-0.14186 0,-0.0156 -0.0056,-0.0355 -0.01704,-0.0582 0.01135,-0.0383 0.01418,-0.0752 0.0085,-0.10786 -0.0213,0.0171 -0.04115,0.0383 -0.05817,0.0667 -0.03829,-0.0227 -0.07518,-0.034 -0.107823,-0.034 -0.05534,0 -0.09649,0.0397 -0.124841,0.11777 -0.0057,-0.0341 -0.03264,-0.0625 -0.0823,-0.088 -0.05109,-0.0256 -0.09224,-0.0369 -0.124844,-0.0369 -0.0227,0 -0.04258,0.007 -0.05816,0.0241 v 0.0171 c 0,0.0326 0.0241,0.0624 0.07375,0.0865 0.05109,0.0256 0.09224,0.0384 0.124878,0.0384 0.03403,0 0.05531,-0.009 0.06667,-0.0255 -0.01135,0.0227 -0.0085,0.0439 0.0085,0.0667 -0.0227,0.0113 -0.04115,0.0255 -0.05817,0.0411 -0.03832,0 -0.06103,0.0114 -0.06668,0.0341 h -0.04114 -0.03407 c -0.02695,-0.061 -0.07093,-0.15326 -0.131918,-0.27524 0.0099,-0.0213 0.01558,-0.044 0.01558,-0.0652 0,-0.0341 -0.01558,-0.0611 -0.04966,-0.0837 0.01704,-0.0113 0.02551,-0.0227 0.02551,-0.0327 0,-0.034 -0.02267,-0.051 -0.06668,-0.051 -0.01704,0 -0.02551,0.006 -0.02551,0.017 0,0.017 0.0085,0.0369 0.02551,0.0582 h -0.01704 c -0.01704,-0.0497 -0.04115,-0.15752 -0.07518,-0.32347 l 0.02551,-0.0426 c -0.01135,-0.0212 -0.02839,-0.0354 -0.04966,-0.0411 l -0.04966,-0.20711 c 0.03832,0.027 0.07379,0.0412 0.107823,0.0412 0.06667,0 0.09932,-0.0341 0.09932,-0.0994 0,-0.0951 -0.05817,-0.14186 -0.174503,-0.14186 -0.03264,0 -0.06102,0.0142 -0.0823,0.0411 -0.03403,-0.11633 -0.07518,-0.288 -0.124838,-0.51499 0.126269,-0.12773 0.190121,-0.25826 0.190121,-0.39021 0,-0.16739 -0.07379,-0.42701 -0.224189,-0.78173 0.03972,-0.20571 0.05251,-0.35754 0.04258,-0.45682 v 0.007 c 0.04966,-0.15462 0.08795,-0.26244 0.116332,-0.32343 0.04966,-0.0951 0.119195,-0.1887 0.20714,-0.28236 0.421391,-0.0113 0.692383,-0.13621 0.814366,-0.37456 0.166026,-0.0114 0.285181,-0.0411 0.35754,-0.0908 0.343347,-0.0893 0.581697,-0.13335 0.715081,-0.13335 0.144685,0 0.211394,0.003 0.200028,0.009 0.436978,0 0.776073,0.0709 1.014423,0.21561 0.03264,0.10501 0.09931,0.25255 0.19863,0.44124 0.04397,0.18733 0.147543,0.288 0.307885,0.29798 -0.0057,0.006 -0.03832,0.0865 -0.09932,0.24114 0,0.0454 -0.0085,0.10643 -0.02553,0.18304 -0.387355,0.1504 -0.681014,0.22419 -0.881073,0.22419 -0.127701,0 -0.255365,-0.0553 -0.383069,-0.16602 -0.177358,-0.15463 -0.282324,-0.24121 -0.31496,-0.2568 h 0.0085 c -0.04966,-0.0397 -0.133353,-0.0581 -0.249719,-0.0581 -0.354682,0 -0.514993,0.10496 -0.482383,0.31493 v -0.0156 c -0.0056,0.0823 -0.01984,0.20717 -0.04115,0.37316 -0.01135,0.0554 -0.05391,0.12062 -0.129098,0.19578 -0.07519,0.0752 -0.11208,0.15043 -0.11208,0.22844 -0.03972,0.0837 -0.05817,0.16316 -0.05817,0.24121 0,0.0667 0.02551,0.15319 0.07804,0.26244 0.05391,0.10786 0.110649,0.16178 0.171641,0.16178 0.0057,0.18868 0.02413,0.35468 0.0582,0.49797 -0.01135,-0.0156 -0.02556,-0.0241 -0.04258,-0.0241 -0.07661,0 -0.116332,0.044 -0.116332,0.13339 0,0.0496 0.0227,0.0738 0.06668,0.0738 0.06667,0 0.09931,-0.0439 0.09931,-0.13195 0.01135,0.0383 0.01987,0.0766 0.02551,0.11633 -0.01132,0.0384 -0.01704,0.071 -0.01704,0.0994 0,0.0879 0.03972,0.14329 0.116332,0.16602 0.0454,0.0837 0.09792,0.14465 0.158911,0.18301 0.0057,0.0227 0.02127,0.0383 0.04966,0.0497 0,0.061 0.01987,0.139 0.05817,0.23263 0.01135,-0.017 0.01704,-0.0411 0.01704,-0.0752 0,-0.0326 -0.0085,-0.0851 -0.02551,-0.15745 0.08369,0.14468 0.212825,0.19155 0.390147,0.14186 0,0.0113 0,0.0213 0,0.0326 0,0.0497 0.0227,0.0752 0.06671,0.0752 0.04966,0 0.07518,-0.0227 0.07518,-0.0667 0,-0.0227 -0.01135,-0.0468 -0.03264,-0.0752 0.171678,-0.0667 0.276678,-0.11916 0.314966,-0.15748 0.104999,-0.0113 0.158914,-0.0908 0.158914,-0.24121 0,-0.044 -0.01135,-0.10925 -0.03404,-0.19577 -0.0227,-0.0851 -0.03264,-0.15891 -0.03264,-0.21993 -0.07236,0.0113 -0.174498,0.017 -0.307887,0.017 -0.04966,-0.15602 -0.11633,-0.23263 -0.200023,-0.23263 -0.03832,0 -0.09367,0.0141 -0.166023,0.0411 -0.104966,-0.28229 -0.148976,-0.54055 -0.133353,-0.77318 v -0.0411 c 0.03972,-0.0554 0.122018,-0.10786 0.249717,-0.15748 0.01704,0.004 0.04112,0.007 0.07519,0.007 0.122015,0 0.279497,-0.0212 0.473874,-0.0667 0.259619,-0.0652 0.415708,-0.10214 0.465365,-0.10782 0.139033,-0.0156 0.348998,-0.0411 0.631354,-0.0738 0.03972,0.0823 0.180181,0.19015 0.42418,0.32354 0.05534,0.24968 0.08373,0.62141 0.08373,1.11374 0,0.24399 -0.01418,0.40716 -0.04258,0.49085 z m 16.893326,-2.19484 c 0,0.22137 -0.0284,0.50938 -0.0837,0.86406 -0.0709,0.44974 -0.113501,0.73771 -0.12487,0.86545 -0.0497,0.0326 -0.0737,0.0723 -0.0737,0.11633 0,0.027 0.01281,0.0496 0.0412,0.0667 h 0.01701 c 0,0.0383 -0.003,0.0695 -0.008,0.0908 -0.061,0 -0.105,0.0142 -0.13339,0.0411 0.01709,0.0113 0.0355,0.0227 0.0582,0.034 0.0227,-0.006 0.0468,-0.0114 0.0752,-0.0171 0,-0.0269 -0.0114,0.18021 -0.0341,0.62427 -0.044,0.0327 -0.0582,0.0794 -0.0412,0.1405 h -0.01699 c -0.0823,-0.006 -0.124841,0.0525 -0.124841,0.17449 l -0.0326,-0.0156 c -0.0227,0 -0.0355,0.0128 -0.0412,0.0411 -0.006,0.017 -0.006,0.0355 0,0.0582 l 0.008,0.017 c -0.0454,0 -0.078,0.0355 -0.100711,0.10786 l -0.0497,-0.009 -0.0241,0.009 -0.01701,-0.0411 c -0.006,-0.006 -0.0114,-0.009 -0.01699,-0.009 -0.0269,0 -0.0568,0.0255 -0.0865,0.078 -0.0312,0.0525 -0.0468,0.0964 -0.0468,0.12909 l 0.02558,0.0496 c 0.0269,0 0.0525,-0.0128 0.0752,-0.0411 0.01561,0.0327 0.0468,0.0497 0.0908,0.0497 0.044,0 0.078,-0.017 0.0993,-0.0497 0.0227,0 0.0397,-0.006 0.0511,-0.017 0.006,-0.0156 0.003,-0.0327 -0.008,-0.0497 0.0497,-0.0114 0.0738,-0.0525 0.0738,-0.12484 0,-0.0113 -0.004,-0.0298 -0.01561,-0.0582 0.01561,-0.017 0.0298,-0.0411 0.0412,-0.0752 l 0.008,0.017 c 0.044,0.017 0.0639,0.0256 0.0582,0.0256 0.0113,0 0.0269,-0.006 0.0496,-0.0171 -0.0227,0.20006 -0.0326,0.28801 -0.0326,0.26674 h -0.02561 c -0.110651,0 -0.165992,0.0581 -0.165992,0.17453 0,0.0822 0.044,0.12338 0.13339,0.12338 -0.01701,0.0511 -0.0426,0.12773 -0.0752,0.23413 -0.0113,-0.0114 -0.0312,-0.0199 -0.0582,-0.0255 -0.034,-0.0611 -0.0837,-0.0781 -0.150368,-0.0497 -0.0326,-0.017 -0.0653,-0.0255 -0.0993,-0.0255 -0.105,0 -0.16034,0.0497 -0.166031,0.1504 l -0.01699,-0.009 c 0.0284,-0.0227 0.0412,-0.0553 0.0412,-0.0993 0,-0.0227 -0.01561,-0.0497 -0.0497,-0.0795 -0.0326,-0.0312 -0.0497,-0.0482 -0.0497,-0.0539 0.0667,-0.0284 0.0993,-0.0695 0.0993,-0.12488 0,-0.0439 -0.01701,-0.078 -0.0539,-0.0993 -0.0355,-0.0227 -0.0752,-0.0255 -0.120579,-0.009 -0.0269,-0.0553 -0.0582,-0.0837 -0.0908,-0.0837 -0.0284,0 -0.0468,0.017 -0.0582,0.0496 -0.0227,-0.0269 -0.0497,-0.0411 -0.0837,-0.0411 -0.0653,0 -0.0993,0.0384 -0.0993,0.11633 -0.01701,-0.006 -0.0468,-0.0113 -0.0908,-0.017 -0.01701,-0.0213 -0.0397,-0.0355 -0.0667,-0.0411 0,-0.0284 0.006,-0.0695 0.01561,-0.12488 0.034,0.017 0.0511,0.0255 0.0511,0.0255 0.0326,0 0.0653,-0.0369 0.0993,-0.10779 l 0.0411,0.007 v 0.0426 c -0.006,0.0553 0.01701,0.0823 0.0667,0.0823 0.0667,0 0.0993,-0.0355 0.0993,-0.10783 l -0.0241,-0.0497 0.01699,-0.0171 c 0.01,0.006 0.0525,0.009 0.123439,0.009 0.034,0.0171 0.0582,0.0255 0.0752,0.0255 0.0341,0 0.0497,-0.017 0.0497,-0.0496 0,-0.0951 -0.0355,-0.14189 -0.10782,-0.14189 -0.0326,0 -0.0638,0.0227 -0.0908,0.0667 l -0.0426,0.0241 -0.0497,-0.0241 c 0,-0.0667 -0.0298,-0.10078 -0.0908,-0.10078 -0.01699,0 -0.0497,0.0284 -0.10074,0.0837 h -0.01561 c -0.0284,0 -0.0553,0.0227 -0.0837,0.0667 0,0.017 0.0114,-0.0752 0.0341,-0.27385 0.01,0 0.01839,0.0156 0.0241,0.0496 0.006,0.0326 0.02561,0.0496 0.0582,0.0496 0.0397,0 0.0582,-0.0227 0.0582,-0.0667 0,-0.044 -0.01561,-0.0752 -0.0497,-0.0908 0.006,-0.0227 0.0114,-0.0454 0.01699,-0.0667 -0.0114,-0.0454 -0.0369,-0.0724 -0.0752,-0.0837 0,-0.0326 0.006,-0.0667 0.01709,-0.0993 h 0.0497 c 0,0.0667 0.0227,0.0993 0.0667,0.0993 0.0326,0 0.0667,-0.017 0.0993,-0.0497 0.034,-0.034 0.0497,-0.0638 0.0497,-0.0922 0,-0.0496 -0.044,-0.0737 -0.131961,-0.0737 -0.0227,-0.0341 -0.0539,-0.0497 -0.0922,-0.0497 l -0.01699,-0.008 c 0.006,-0.0553 0.02558,-0.17454 0.0582,-0.35754 0.0227,0.0113 0.0454,0.0156 0.0667,0.0156 0.0553,0 0.0837,-0.0213 0.0837,-0.0652 0,-0.0227 -0.01701,-0.0341 -0.0497,-0.0341 -0.0227,0 -0.0525,0.009 -0.0922,0.0256 0.006,-0.034 0.0298,-0.16885 0.071,-0.4072 0.0412,-0.23834 0.0624,-0.36036 0.0624,-0.36601 0,-0.0497 -0.0312,-0.0951 -0.0908,-0.13335 l 0.0497,-0.41574 -0.124839,0.39161 c -0.116361,0.004 -0.197231,0.14614 -0.24121,0.42278 -0.0284,0.18866 -0.0553,0.37735 -0.0837,0.56608 l -0.0326,-0.0171 -0.0341,0.0327 c 0.0114,0.0284 0.02561,0.0454 0.0426,0.0511 -0.0553,0.12201 -0.0979,0.21564 -0.124839,0.28232 -0.0397,-0.0497 -0.078,-0.0724 -0.116332,-0.0667 h -0.01699 v 0.008 c 0,0.044 0.0383,0.0724 0.116329,0.0823 -0.0113,0.0227 -0.0269,0.0667 -0.0496,0.13335 -0.01699,-0.0269 -0.0355,-0.0497 -0.0582,-0.0667 -0.034,0.0113 -0.0525,0.0397 -0.0582,0.0837 -0.01699,-0.0114 -0.034,-0.0171 -0.0497,-0.0171 -0.0227,0 -0.0425,0.008 -0.0582,0.0256 h -0.008 c -0.01701,0.0113 -0.0312,0.0269 -0.0412,0.0496 0.004,0.027 0.01839,0.0426 0.0412,0.0454 0.0213,0.003 0.0468,0.007 0.0752,0.0128 l 0.0497,-0.0327 c 0.006,0.0383 0.01839,0.0652 0.0412,0.0823 -0.0269,0.0383 -0.0497,0.10783 -0.0667,0.2085 h -0.01701 c -0.027,-0.006 -0.0412,0.0156 -0.0412,0.0653 0,0.0397 0.008,0.0724 0.02551,0.10078 -0.034,0.20996 -0.0525,0.32916 -0.0582,0.35751 -0.0454,0.16034 -0.103568,0.25676 -0.174501,0.29087 v -0.0256 l -0.01699,-0.0411 c 0.0667,-0.0114 0.0993,-0.0525 0.0993,-0.12491 0,-0.078 -0.044,-0.1163 -0.131961,-0.1163 -0.0284,0 -0.0596,0.0142 -0.0965,0.0412 -0.0355,0.0284 -0.0539,0.0581 -0.0539,0.0922 l 0.01699,0.0241 h -0.01699 c -0.0497,0 -0.0752,0.0312 -0.0752,0.0922 0,0.0326 0.0199,0.0553 0.0582,0.0667 l 0.008,0.009 c -0.0766,0.004 -0.191511,0.0269 -0.34049,0.0653 l -0.009,-0.0326 0.01701,-0.017 v -0.0497 l 0.0497,0.009 c 0.0284,-0.006 0.0553,-0.0198 0.0837,-0.0411 l 0.007,0.009 c 0.006,0.0326 0.01421,0.0553 0.02551,0.0653 0.0113,-0.0326 0.0113,-0.071 0,-0.11634 0.044,-0.01 0.0667,-0.0298 0.0667,-0.0582 -0.01701,-0.027 -0.0383,-0.044 -0.0667,-0.0496 l -0.0412,-0.0497 c 0.0213,-0.0283 0.0326,-0.0524 0.0326,-0.0752 0,-0.0156 -0.008,-0.0326 -0.0241,-0.0496 l 0.0326,-0.0327 c -0.0113,-0.017 -0.0284,-0.0255 -0.0497,-0.0255 -0.01699,0 -0.0312,0.0113 -0.0411,0.0341 l 0.007,0.007 c -0.0269,0 -0.044,0.0142 -0.0497,0.0426 -0.006,0.0213 -0.006,0.0468 0,0.0737 -0.0823,0 -0.12487,0.0426 -0.12487,0.12485 0,0.0554 0.0199,0.0979 0.0582,0.12487 l -0.0241,0.009 c -0.01709,-0.0113 -0.0369,-0.0171 -0.0582,-0.0171 -0.044,0 -0.078,0.0312 -0.100749,0.0922 -0.19863,-0.017 -0.323471,-0.078 -0.37312,-0.183 0.044,0 0.0667,-0.0171 0.0667,-0.0496 0,-0.044 -0.0199,-0.0667 -0.0582,-0.0667 l -0.0341,0.017 v -0.017 l 0.0497,-0.0255 c 0.006,-0.006 0.008,-0.0128 0.008,-0.0241 0,-0.0228 -0.01421,-0.0468 -0.0411,-0.0752 0.0383,-0.061 0.0582,-0.15177 0.0582,-0.27382 l 0.008,-0.008 c 0.0326,0 0.0497,-0.0256 0.0497,-0.0753 0,-0.0667 -0.0227,-0.0993 -0.0667,-0.0993 -0.01701,-0.17168 -0.0525,-0.35468 -0.107831,-0.54909 l -0.008,0.0255 c -0.006,-0.0397 -0.0269,-0.13615 -0.0667,-0.29084 l 0.008,-0.017 -0.01701,-0.0171 c -0.01561,-0.1107 -0.0496,-0.271 -0.0993,-0.48243 -0.0553,-0.16031 -0.10782,-0.42701 -0.15748,-0.79735 l -0.0426,0.38171 c -0.01,0.0894 -0.0511,0.21561 -0.120589,0.37878 -0.0681,0.16317 -0.103571,0.31211 -0.103571,0.4441 -0.0113,0.21139 -0.01699,0.48234 -0.01699,0.81579 h -0.007 c -0.0341,0 -0.0511,0.0241 -0.0511,0.0738 0,0.0397 0.0199,0.0497 0.0582,0.0341 v 0.349 c -0.0326,0.017 -0.0497,0.0383 -0.0497,0.0667 0,0.0213 0.01421,0.0411 0.0426,0.0582 0,0.0993 -0.01561,0.16459 -0.0468,0.19434 -0.0298,0.0312 -0.0922,0.0497 -0.185859,0.0539 l -0.01701,-0.0581 h -0.01701 c -0.0227,0 -0.044,0.0227 -0.0667,0.0667 h -0.0993 c -0.337701,0.0114 -0.54909,-0.0128 -0.631359,-0.0738 -0.01709,-0.0894 -0.0638,-0.2057 -0.141891,-0.34899 0.0553,-0.43841 0.13335,-1.09533 0.232669,-1.97072 l -0.008,0.009 c 0.01701,-0.0283 0.0369,-0.0695 0.0582,-0.12488 0.006,0 0.01421,0 0.02559,0 0.0553,0 0.0823,-0.0397 0.0823,-0.11633 0,-0.0227 -0.007,-0.0426 -0.0241,-0.0582 l -0.0411,-0.009 c 0.0213,-0.17167 0.0298,-0.35754 0.0241,-0.5576 0.0383,-0.0212 0.0582,-0.0468 0.0582,-0.0737 0,-0.017 -0.0114,-0.0369 -0.0326,-0.0582 l -0.02551,-0.008 c 0,-0.0341 0,-0.0809 0,-0.1419 -0.006,-0.061 -0.008,-0.10779 -0.008,-0.14046 0,-0.0511 0.003,-0.0979 0.008,-0.14186 0.01699,0.006 0.034,0.009 0.0497,0.009 0.0553,0 0.0752,-0.034 0.0582,-0.10071 0.061,-0.0213 0.0922,-0.0525 0.0922,-0.0908 0,-0.0667 -0.034,-0.0994 -0.100711,-0.0994 -0.0497,0 -0.0738,0.0383 -0.0738,0.11634 l -0.01701,-0.008 c 0,-0.034 0.01281,-0.0879 0.0369,-0.16178 0.02551,-0.0751 0.0355,-0.13195 0.0298,-0.17167 0.0326,-0.0993 0.0823,-0.1745 0.148968,-0.22416 0.0553,0.006 0.110651,0.009 0.165992,0.009 0.0567,0 0.11494,-0.003 0.175929,-0.009 0.0326,0.061 0.0624,0.0922 0.0908,0.0922 0,0 0.044,-0.034 0.13335,-0.10067 0.088,0 0.154659,-0.003 0.19863,-0.007 0,0.01 -0.007,0.0312 -0.0241,0.0624 -0.01709,0.0298 -0.02558,0.0539 -0.02558,0.0695 0,0.0667 0.0426,0.10078 0.124878,0.10078 0.0894,0 0.13335,-0.0525 0.13335,-0.15892 0,-0.0269 -0.008,-0.0525 -0.02551,-0.0738 h 0.100711 c 0.22702,-0.006 0.42282,0.0156 0.590211,0.0653 -0.0113,0.0113 -0.01701,0.0227 -0.01701,0.0341 0,0.0269 0.01421,0.0411 0.0412,0.0411 0.0227,0 0.0397,-0.017 0.0497,-0.0497 0.0724,0.0327 0.13335,0.0639 0.183009,0.0908 0.006,0.0227 0.008,0.0482 0.008,0.0752 0,0.044 -0.006,0.10925 -0.01699,0.19577 -0.01,0.0852 -0.01561,0.15044 -0.01561,0.19577 0,0.12631 0.0298,0.20718 0.0908,0.24121 h -0.009 c 0.0454,0.0497 0.110651,0.38736 0.20003,1.01299 0.0724,-0.22694 0.14328,-0.45396 0.215652,-0.68098 0.0951,-0.26105 0.188719,-0.47955 0.28235,-0.65687 0.0397,-0.0667 0.0951,-0.12774 0.16742,-0.18305 0.0553,-0.044 0.0993,-0.1277 0.131919,-0.24971 0.116369,0.0113 0.235529,0.0199 0.357539,0.0255 0.167421,0.0171 0.27242,0.044 0.316392,0.0823 0.0837,0.078 0.1745,0.11776 0.273819,0.11776 0.061,0 0.153229,-0.0212 0.275241,-0.0624 0.122018,-0.0426 0.212818,-0.0624 0.27382,-0.0624 0.166018,0 0.273839,0.0794 0.324898,0.24114 0.0269,0.0823 0.0412,0.22983 0.0412,0.43983 z m -0.49089,3.90728 -0.01699,0.0171 -0.007,-0.0255 c 0.006,0.006 0.01281,0.008 0.0241,0.008 z m -0.656878,0.0255 c -0.0269,0 -0.0497,-0.003 -0.0667,-0.008 -0.0326,-0.0397 -0.0681,-0.0582 -0.107849,-0.0582 l -0.0326,-0.017 c -0.01701,-0.0227 -0.044,-0.0326 -0.0837,-0.0326 -0.0383,-0.0227 -0.061,-0.034 -0.0667,-0.034 -0.01,0 -0.0213,0.009 -0.0326,0.0255 v 0.0156 h -0.0582 c -0.006,-0.0326 -0.008,-0.0738 -0.008,-0.12345 0.01701,0.0269 0.0412,0.0412 0.0752,0.0412 0.0213,0 0.0497,-0.006 0.0823,-0.0171 0.01701,0.0113 0.0397,0.0284 0.0667,0.0496 0,0 0,-0.0411 0,-0.12483 0,0 0.003,-0.0184 0.008,-0.0582 0.01701,0.006 0.0312,0.009 0.0412,0.009 0.0284,0 0.0553,-0.0142 0.0837,-0.0412 l 0.008,0.009 0.01701,-0.0497 -0.008,-0.0171 v -0.0171 l 0.0582,0.0255 c -0.0113,0.0269 -0.01699,0.0525 -0.01699,0.0738 0,0.034 0.01421,0.0581 0.0411,0.0752 l -0.01561,0.008 -0.02551,-0.0255 c -0.01701,-0.004 -0.0298,-0.007 -0.0411,-0.007 -0.0397,0 -0.0582,0.0241 -0.0582,0.0737 0,0.0553 0.01561,0.0838 0.0497,0.0838 l 0.0241,-0.017 c 0.006,0.0227 0.0227,0.0369 0.051,0.0426 -0.006,0.0212 -0.008,0.0411 -0.008,0.0582 0,0.027 0.008,0.0468 0.0241,0.0581 z m 0.590209,-2.16216 c 0,-0.0213 -0.01561,-0.0326 -0.0497,-0.0326 -0.0383,0 -0.0582,0.0128 -0.0582,0.0411 0,0.0326 0.01699,0.0496 0.0496,0.0496 0.0397,0 0.0582,-0.0198 0.0582,-0.0581 z m 0.200059,0.39158 c 0,-0.0837 -0.0312,-0.12488 -0.0922,-0.12488 -0.088,0 -0.131961,0.0582 -0.131961,0.1745 0,0.0823 0.0326,0.12487 0.0993,0.12487 0.0837,0 0.124881,-0.0582 0.124881,-0.17449 z m -0.740609,-0.45825 c 0.0113,-0.0213 0.01699,-0.0469 0.01699,-0.0738 0,-0.0397 -0.0113,-0.0667 -0.0326,-0.0837 -0.0113,0.0114 -0.01701,0.0298 -0.01701,0.0582 0,0.0497 0.0113,0.0837 0.0326,0.0994 z m -2.393471,-2.41906 c 0.006,-0.0113 0.008,-0.0212 0.008,-0.0326 0,-0.0454 -0.02561,-0.0667 -0.0752,-0.0667 l -0.0326,0.017 c -0.006,0.01 -0.009,0.0213 -0.009,0.0327 0,0.044 0.0213,0.0695 0.0667,0.0752 l 0.0412,-0.0256 z m 2.44452,2.43604 h -0.008 c -0.061,-0.006 -0.0922,0.0554 -0.0922,0.18301 v 0.009 c 0.0724,-0.0341 0.107831,-0.0894 0.107831,-0.16602 0,-0.0113 -0.0011,-0.0198 -0.007,-0.0255 z m 0.5817,0.7562 c 0,-0.0553 -0.0227,-0.0823 -0.0667,-0.0823 -0.0283,0.01 -0.0411,0.0383 -0.0411,0.0823 0,0.044 0.01561,0.0667 0.0496,0.0667 0.0383,0 0.0582,-0.0227 0.0582,-0.0667 z m -2.877238,-2.95952 c 0,-0.0667 -0.0269,-0.0994 -0.0823,-0.0994 -0.0951,0 -0.141899,0.0525 -0.141899,0.15748 0,0.0667 0.0312,0.10075 0.0922,0.10075 0.0879,0 0.131959,-0.0539 0.131959,-0.15888 z m 0.30784,0.41564 c 0,-0.0269 -0.01701,-0.0411 -0.0496,-0.0411 -0.0227,0 -0.0326,0.009 -0.0326,0.0241 0,0.0397 0.01561,0.0596 0.0497,0.0596 0.0213,0 0.0326,-0.0142 0.0326,-0.0426 z m 2.11115,2.07003 c -0.0326,0 -0.0496,0.0312 -0.0496,0.0922 0,0.0667 0.0227,0.0993 0.0667,0.0993 0.0341,0 0.0497,-0.0283 0.0497,-0.0837 0,-0.071 -0.0213,-0.10782 -0.0667,-0.10782 z m 0.566108,0.63275 c 0,-0.0511 -0.0284,-0.0752 -0.0837,-0.0752 -0.0326,0 -0.0497,0.0156 -0.0497,0.0496 0,0.061 0.0284,0.0908 0.0837,0.0908 0.0326,0 0.0496,-0.0212 0.0496,-0.0652 z m -3.392289,-3.31 c 0,-0.0383 -0.01561,-0.0581 -0.0496,-0.0581 -0.0497,0 -0.0752,0.0312 -0.0752,0.0922 0,0.0383 0.01701,0.0581 0.051,0.0581 0.0497,0 0.0738,-0.0312 0.0738,-0.0922 z m 2.909879,3.00211 c 0,-0.0553 -0.0298,-0.0837 -0.0908,-0.0837 -0.0341,0 -0.0511,0.017 -0.0511,0.0496 0,0.061 0.0284,0.0922 0.0837,0.0922 0.0383,0 0.0582,-0.0199 0.0582,-0.0582 z m 0.42421,0.4569 -0.0411,-0.0327 -0.0426,0.0411 c 0.0113,0.0213 0.0227,0.0327 0.034,0.0327 0.0269,-0.0114 0.044,-0.0241 0.0497,-0.0411 z m -0.191509,0.0326 c 0.0113,0.006 0.01979,0.009 0.02551,0.009 0.01561,0 0.0241,-0.0114 0.0241,-0.0327 0,-0.0284 -0.008,-0.0411 -0.0241,-0.0411 l -0.034,0.0242 0.008,0.0411 z m -0.43984,-0.44835 c 0,-0.0284 -0.01421,-0.0411 -0.0425,-0.0411 -0.0326,0 -0.0497,0.0156 -0.0497,0.0497 0,0.0269 0.01421,0.0411 0.0412,0.0411 0.034,0 0.0511,-0.017 0.0511,-0.0497 z m 0.456861,0.0994 v -0.0156 c 0,-0.0113 -0.003,-0.0284 -0.009,-0.0511 -0.0553,0.006 -0.0752,0.0312 -0.0582,0.0752 h -0.008 c -0.0269,0.0114 -0.044,0.0397 -0.0497,0.0838 -0.0227,-0.0171 -0.044,-0.0227 -0.0667,-0.0171 -0.0269,-0.078 -0.0809,-0.1163 -0.15749,-0.1163 -0.044,0 -0.0667,0.017 -0.0667,0.0496 0,0.0227 0.0114,0.0469 0.0326,0.0752 -0.0497,0.0383 -0.0738,0.0752 -0.0738,0.10779 0,0.0228 0.01281,0.0383 0.0412,0.0497 l 0.008,0.009 -0.008,0.0255 0.0326,0.0411 c -0.0383,0.0227 -0.0582,0.0525 -0.0582,0.0908 0,0.0511 0.01699,0.0752 0.0497,0.0752 0.0667,-0.0212 0.0894,-0.0752 0.0667,-0.15748 0.0454,-0.006 0.0667,-0.0255 0.0667,-0.0581 0,-0.0341 -0.01839,-0.0553 -0.0582,-0.0667 l 0.008,-0.0667 0.02559,0.009 0.0241,0.009 c 0.006,0.0383 0.02561,0.0582 0.0582,0.0582 0.0284,0 0.0525,-0.0113 0.0752,-0.034 0.01701,0.061 0.0383,0.0922 0.0667,0.0922 0.044,0 0.0667,-0.0412 0.0667,-0.12488 0,-0.0496 -0.01699,-0.0894 -0.0497,-0.11633 l 0.0412,-0.0255 z m -3.233391,-2.86737 c 0,-0.0553 -0.0284,-0.0837 -0.0837,-0.0837 -0.044,0 -0.0667,0.0255 -0.0667,0.0752 0,0.0553 0.02551,0.0837 0.0752,0.0837 0.0497,0 0.0752,-0.0255 0.0752,-0.0752 z m -0.383061,-0.29934 c 0.006,-0.0113 0.008,-0.0227 0.008,-0.034 l -0.008,-0.0326 h -0.02551 c -0.01,0 -0.0199,0.007 -0.0284,0.0212 -0.008,0.0128 -0.01281,0.0256 -0.01281,0.0369 0,0.0114 0.003,0.0198 0.008,0.0256 l 0.0582,-0.0171 z m 0.183041,0.23266 c 0.006,-0.006 0.008,-0.0142 0.008,-0.0256 0,-0.0269 -0.0114,-0.0411 -0.0341,-0.0411 -0.0213,0 -0.0326,0.0142 -0.0326,0.0411 0,0.0171 0.01421,0.0256 0.0411,0.0256 z m 0.49089,0.24118 c -0.0114,-0.0113 -0.0227,-0.017 -0.0341,-0.017 -0.0497,0 -0.088,0.0312 -0.116329,0.0923 -0.01701,-0.017 -0.0355,-0.0256 -0.0582,-0.0256 -0.078,0 -0.116332,0.0469 -0.116332,0.14193 0,0.0667 0.0283,0.0993 0.0837,0.0993 0.0326,0 0.0667,-0.0198 0.0993,-0.0581 v -0.009 c 0.0114,0.006 0.0227,0.009 0.0326,0.009 0.0837,0 0.124841,-0.0611 0.124841,-0.18307 l -0.01561,-0.0497 z m 2.925519,3.23344 c -0.0383,-0.0667 -0.110678,-0.11069 -0.215649,-0.13339 v 0.009 c 0,0.006 0.0412,0.0425 0.124849,0.10783 l -0.008,0.0255 0.0326,0.0256 0.02551,-0.034 h 0.0411 z m -3.57387,-3.5824 c 0,-0.0611 -0.0284,-0.0923 -0.0837,-0.0923 -0.061,0 -0.0908,0.0369 -0.0908,0.10925 0,0.0652 0.0241,0.0994 0.0738,0.0994 0.0667,0 0.10074,-0.0397 0.10074,-0.11633 z m 0.864021,0.83985 c -0.006,-0.006 -0.0114,-0.008 -0.01699,-0.008 -0.0724,0 -0.10783,0.044 -0.10783,0.13196 l 0.01701,0.034 c 0.006,0.006 0.0113,0.009 0.01701,0.009 0.0709,0 0.107818,-0.044 0.107818,-0.13338 l -0.01699,-0.0327 z m 1.413081,1.49541 c -0.0113,-0.0213 -0.0298,-0.0326 -0.0582,-0.0326 -0.0326,0 -0.0497,0.017 -0.0497,0.0496 0,0.0284 0.01421,0.0412 0.0412,0.0412 0.044,0 0.0667,-0.0185 0.0667,-0.0582 z m -2.543842,-2.42753 c -0.006,-0.0439 -0.0269,-0.0666 -0.0667,-0.0666 h -0.008 c -0.006,0.0454 0.01701,0.0666 0.0667,0.0666 z m 3.60792,3.78247 c 0.0114,-0.0213 0.01709,-0.0525 0.01709,-0.0908 0,-0.0724 -0.01421,-0.1277 -0.0412,-0.16602 -0.01699,0.006 -0.02551,0.0269 -0.02551,0.0667 0,0.088 0.01699,0.15186 0.0496,0.19016 z m -3.108508,-3.18378 c 0,-0.0879 -0.0454,-0.13335 -0.13335,-0.13335 -0.044,0 -0.0667,0.0227 -0.0667,0.0667 0,0.0837 0.0468,0.12488 0.141891,0.12488 0.0383,0 0.0582,-0.0184 0.0582,-0.0582 z m 2.854579,2.92693 c 0.0199,-0.0227 0.0298,-0.0496 0.0298,-0.0837 0,-0.044 -0.0227,-0.0667 -0.0667,-0.0667 l -0.0412,-0.0242 c -0.0454,0 -0.0667,0.0269 -0.0667,0.0823 0,0.095 0.0269,0.14185 0.0823,0.14185 0.0227,-0.0113 0.044,-0.0283 0.0624,-0.0496 z m -3.145441,-3.29291 c -0.006,-0.006 -0.01421,-0.007 -0.02551,-0.007 -0.0284,0 -0.0582,0.0227 -0.0908,0.0695 -0.034,0.0483 -0.0511,0.088 -0.0511,0.12059 l 0.01701,0.0426 c 0.006,0.006 0.0113,0.007 0.01699,0.007 0.0269,0 0.0582,-0.0255 0.0908,-0.078 0.034,-0.0525 0.0497,-0.0936 0.0497,-0.12058 l -0.007,-0.034 z m -0.29083,-0.17457 c 0,-0.0766 -0.0426,-0.1163 -0.124849,-0.1163 0.006,-0.027 0.007,-0.0525 0.007,-0.0738 0,-0.0453 -0.01561,-0.0667 -0.0497,-0.0667 -0.105,0 -0.15748,0.0469 -0.15748,0.1405 0,0.0397 0.0284,0.0695 0.0837,0.0922 -0.0113,0.0269 -0.01701,0.0553 -0.01701,0.0823 0,0.0837 0.0355,0.12484 0.107828,0.12484 0.0993,0 0.1504,-0.061 0.1504,-0.18304 z m 0.75619,0.82294 c -0.006,-0.004 -0.01421,-0.007 -0.02551,-0.007 -0.0383,0 -0.0582,0.0184 -0.0582,0.0582 l 0.02551,0.0412 c 0.0497,0.006 0.0738,-0.0142 0.0738,-0.0582 l -0.01561,-0.034 z m 0.564682,0.63272 c -0.01701,-0.0667 -0.0553,-0.10068 -0.116332,-0.10068 h -0.008 c 0.006,0.078 0.0425,0.11633 0.107821,0.11633 0.006,-0.004 0.0113,-0.01 0.01699,-0.0156 z m 0.7562,0.84703 c 0.01699,-0.0156 0.02558,-0.0383 0.02558,-0.0653 0,-0.0397 -0.01421,-0.0695 -0.0412,-0.0922 -0.0114,0.0171 -0.01699,0.0383 -0.01699,0.0667 0,0.0383 0.0113,0.0695 0.0326,0.0908 z m 1.122249,1.05697 h -0.01561 c -0.0341,0 -0.0496,0.0185 -0.0496,0.0582 0.0213,0.0269 0.0355,0.0412 0.0412,0.0412 0.0326,0 0.0497,-0.0227 0.0497,-0.0667 z m 0.400111,0.45689 c -0.0724,0 -0.109252,0.0326 -0.109252,0.0993 0,0.044 0.0284,0.0667 0.0837,0.0667 0.078,0 0.11634,-0.0297 0.11634,-0.0908 0,-0.0511 -0.0298,-0.0751 -0.0908,-0.0751 z m -3.541261,-3.51719 c 0,-0.0553 -0.0227,-0.0823 -0.0667,-0.0823 -0.0724,0 -0.10926,0.0468 -0.10926,0.14043 0,0.0554 0.0227,0.0837 0.0667,0.0837 0.0724,0 0.109259,-0.0468 0.109259,-0.1419 z m 3.964049,3.9655 -0.0326,-0.0411 -0.01699,-0.009 c -0.0114,-0.0724 -0.0383,-0.10783 -0.0823,-0.10783 -0.0227,0.0113 -0.0397,0.0298 -0.0497,0.0581 l -0.008,-0.017 c 0,-0.0724 -0.0227,-0.10782 -0.0667,-0.10782 -0.078,0 -0.11633,0.0383 -0.11633,0.1163 0,0.0327 0.01699,0.0582 0.0497,0.0753 l 0.01701,0.0411 c -0.006,0.0114 -0.01421,0.0284 -0.02561,0.0497 l 0.01709,0.034 h 0.01701 c 0.01,0 0.0241,-0.017 0.0412,-0.0496 0.0326,0 0.061,-0.0114 0.0823,-0.0341 0.006,0.044 0.01979,0.0667 0.0425,0.0667 0.0114,0 0.01839,-0.003 0.0241,-0.009 0.0284,0 0.0468,-0.0227 0.0582,-0.0667 h 0.0497 z m 0.034,0.12487 c 0,-0.0269 -0.0113,-0.0411 -0.034,-0.0411 -0.0269,0 -0.0412,0.0113 -0.0412,0.0326 v 0.017 c 0,0.0227 0.008,0.0326 0.0255,0.0326 h 0.01561 c 0.0227,0 0.034,-0.007 0.034,-0.0242 v -0.017 z m -3.642,-3.66616 c 0,-0.0383 -0.01281,-0.0581 -0.0412,-0.0581 -0.0667,0 -0.0993,0.0354 -0.0993,0.10783 0,0.0397 0.01701,0.0581 0.0497,0.0581 0.061,0 0.0908,-0.0355 0.0908,-0.10783 z m 0.458251,0.51506 c 0,-0.0653 -0.0397,-0.0994 -0.116332,-0.0994 -0.0397,0 -0.0582,0.0199 -0.0582,0.0582 0,0.0723 0.0355,0.10782 0.107818,0.10782 0.044,0 0.0667,-0.0213 0.0667,-0.0667 z m 1.387588,1.36342 c -0.0326,0 -0.0497,0.0256 -0.0497,0.0752 h -0.008 c -0.0213,0 -0.0412,0.0142 -0.0582,0.0411 0.0114,0.0171 0.0369,0.0256 0.0752,0.0256 0.0113,0.0326 0.0284,0.0496 0.0497,0.0496 0.0383,0 0.0582,-0.0326 0.0582,-0.0993 0,-0.061 -0.0213,-0.0922 -0.0667,-0.0922 z m -2.044469,-1.89546 c -0.0383,-0.11072 -0.105,-0.16606 -0.20006,-0.16606 v 0.009 c 0,0.0227 0.02558,0.0539 0.0752,0.095 0.0497,0.0426 0.088,0.0625 0.11634,0.0625 h 0.009 z m 1.729509,1.87987 c -0.0114,-0.0284 -0.0369,-0.0426 -0.0752,-0.0426 -0.061,0 -0.0922,0.0199 -0.0922,0.0582 v 0.009 c 0,0.0284 0.01979,0.0411 0.0582,0.0411 0.0724,0 0.109249,-0.0213 0.109249,-0.0652 z m -1.63019,-1.53795 c 0.0497,-0.0171 0.0752,-0.0454 0.0752,-0.0838 0,-0.0553 -0.0227,-0.0837 -0.0667,-0.0837 -0.0383,0 -0.0639,0.0369 -0.0752,0.10921 -0.0269,-0.017 -0.0525,-0.0256 -0.0738,-0.0256 -0.034,0 -0.0511,0.017 -0.0511,0.0496 0,0.0341 0.01839,0.0681 0.0539,0.10361 0.0369,0.0369 0.0738,0.0553 0.113472,0.0553 0.0326,0 0.0497,-0.017 0.0497,-0.0511 0,-0.0212 -0.008,-0.0468 -0.02551,-0.0737 z m -0.323469,-0.27525 -0.008,-0.0497 c -0.006,-0.006 -0.0114,-0.009 -0.01699,-0.009 -0.0227,0 -0.0326,0.0142 -0.0326,0.0426 0,0.0156 0.004,0.0255 0.0113,0.0284 0.008,0.003 0.01561,0.004 0.0213,0.004 0.0114,0 0.0199,-0.006 0.02561,-0.017 z m -0.232701,-0.35754 c -0.0397,0 -0.0724,0.0198 -0.100708,0.0581 -0.0269,0.0397 -0.0355,0.078 -0.0241,0.11634 -0.0227,0.006 -0.034,0.017 -0.034,0.0341 0,0.044 0.0227,0.0553 0.0667,0.0326 v 0.009 c 0.01699,0.0113 0.0369,0.017 0.0582,0.017 0.0894,0 0.13335,-0.0497 0.13335,-0.15041 0,-0.0766 -0.034,-0.11633 -0.0993,-0.11633 z m 3.390881,3.53415 c 0,-0.0227 -0.008,-0.0341 -0.0241,-0.0341 -0.0114,0 -0.0312,0.0142 -0.0582,0.0412 0,0.0227 0.006,0.0341 0.01561,0.0341 0.0114,0 0.0341,-0.0142 0.0667,-0.0411 z m -1.014431,-0.98178 c -0.01,-0.0213 -0.0298,-0.0327 -0.0582,-0.0327 -0.0269,0 -0.0412,0.009 -0.0412,0.0242 l 0.008,0.017 c 0,0.0284 0.01421,0.0411 0.0411,0.0411 0.0341,0 0.0497,-0.0156 0.0497,-0.0496 z m -1.31237,-1.27973 c 0,-0.0284 -0.0113,-0.0411 -0.034,-0.0411 -0.044,0 -0.0667,0.0241 -0.0667,0.0738 0,0.0341 0.01421,0.0497 0.0426,0.0497 0.0383,0 0.0582,-0.027 0.0582,-0.0823 z m -0.540538,-0.35754 c 0.006,-0.0114 0.008,-0.0227 0.008,-0.0341 0,-0.061 -0.0284,-0.0908 -0.0837,-0.0908 l -0.0411,0.0255 c -0.006,0.01 -0.009,0.0213 -0.009,0.0327 0,0.061 0.0269,0.0908 0.0823,0.0908 l 0.0425,-0.0241 z m 2.044459,1.99481 c 0,-0.0383 -0.0213,-0.0582 -0.0667,-0.0582 -0.0553,0 -0.0823,0.0255 -0.0823,0.0752 0,0.0383 0.0213,0.0581 0.0667,0.0581 0.0553,0 0.0823,-0.0255 0.0823,-0.0752 z m -2.477191,-2.41903 c 0,-0.0553 -0.0269,-0.0837 -0.0837,-0.0837 l -0.0412,0.017 c -0.0113,0.0113 -0.01701,0.0255 -0.01701,0.0412 0,0.0511 0.0284,0.0752 0.0837,0.0752 0.0383,0 0.0582,-0.017 0.0582,-0.0497 z m 0.0837,0.23267 h 0.01561 c 0.0284,0 0.0426,-0.0142 0.0426,-0.0412 0,-0.034 -0.0114,-0.0496 -0.0341,-0.0496 -0.0113,0.006 -0.0199,0.0142 -0.0284,0.0284 -0.008,0.0142 -0.01281,0.0269 -0.01281,0.0383 l 0.01699,0.0241 z m 1.512401,1.50531 -0.0412,-0.034 c -0.0227,0.0171 -0.034,0.034 -0.034,0.0496 0,0.0227 0.01421,0.0341 0.0426,0.0341 0.0213,-0.0114 0.0326,-0.0284 0.0326,-0.0497 z m 0.898088,1.07116 c 0.006,-0.0213 0.008,-0.0497 0.008,-0.0823 0,-0.078 -0.0113,-0.13621 -0.034,-0.1745 -0.01561,0.006 -0.0241,0.0269 -0.0241,0.0667 0,0.0879 0.01561,0.15179 0.0497,0.19008 z m -0.499398,-0.6725 c -0.0213,-0.034 -0.0525,-0.0496 -0.0908,-0.0496 -0.0993,0 -0.150402,0.0326 -0.150402,0.0993 0,0.044 0.0511,0.0667 0.150402,0.0667 0.006,0.061 0.0298,0.0908 0.0752,0.0908 0.0993,0 0.148968,-0.0411 0.148968,-0.12487 0,-0.0496 -0.044,-0.0766 -0.13335,-0.0823 z m 0.158909,0.24121 c -0.0341,0 -0.0511,0.0298 -0.0511,0.0908 0,0.0894 0.0227,0.13335 0.0667,0.13335 0.0397,0 0.0582,-0.0326 0.0582,-0.0993 0,-0.0837 -0.0241,-0.12487 -0.0737,-0.12487 z m -1.60464,-1.57199 c -0.0837,0.0284 -0.12487,0.0837 -0.12487,0.16738 0,0.004 0.003,0.01 0.008,0.0156 0.0823,-0.0213 0.12487,-0.0738 0.12487,-0.15748 0,-0.0114 -0.003,-0.0199 -0.008,-0.0256 z m -0.507939,-0.39866 c 0,-0.078 -0.0326,-0.11633 -0.0993,-0.11633 -0.0936,0 -0.141859,0.0581 -0.141859,0.17447 0,0.0724 0.0312,0.10782 0.0922,0.10782 0.0993,0 0.148969,-0.0553 0.148969,-0.16596 z m 1.845839,1.9877 c 0,-0.0568 -0.0213,-0.0837 -0.0667,-0.0837 -0.061,0 -0.0908,0.0411 -0.0908,0.12488 0,0.0497 0.0213,0.0752 0.0667,0.0752 0.061,0 0.0908,-0.0397 0.0908,-0.11633 z m 0.34049,0.38164 c -0.0936,0 -0.14046,0.0255 -0.14046,0.0752 0,0.0326 0.0241,0.0497 0.0738,0.0497 0.11207,0 0.167421,-0.0256 0.167421,-0.0753 0,-0.0326 -0.0341,-0.0496 -0.100751,-0.0496 z m -0.34049,-0.28236 c -0.0383,0 -0.0582,0.0241 -0.0582,0.0752 0,0.061 0.0227,0.0908 0.0667,0.0908 0.0326,0 0.0497,-0.0284 0.0497,-0.0837 0,-0.0553 -0.0199,-0.0823 -0.0582,-0.0823 z m 0.499401,0.57322 c 0.0709,0 0.107828,-0.0298 0.107828,-0.0908 0,-0.0497 -0.0284,-0.0752 -0.0837,-0.0752 -0.0269,0 -0.0582,0.009 -0.0908,0.0255 -0.0341,-0.0227 -0.0639,-0.0341 -0.0922,-0.0341 -0.0667,0 -0.0993,0.0383 -0.0993,0.11634 0,0.0894 0.0412,0.13334 0.124868,0.13334 0.0326,0 0.061,-0.0255 0.0837,-0.0752 0,0 0.01561,0 0.0496,0 z m -0.706541,-0.79738 c 0,-0.061 -0.0341,-0.0922 -0.10074,-0.0922 -0.0823,0 -0.124851,0.0369 -0.124851,0.10785 0,0.0667 0.034,0.10072 0.100711,0.10072 0.0823,0 0.12488,-0.0397 0.12488,-0.11634 z m 0.390139,0.46537 c 0,-0.0397 -0.01421,-0.0582 -0.0412,-0.0582 -0.0227,0 -0.0454,0.0156 -0.0667,0.0497 v 0.017 l -0.034,-0.034 c -0.0213,0 -0.0326,0.006 -0.0326,0.017 0,0.0114 0.003,0.0213 0.008,0.0284 0.006,0.009 0.0213,0.0128 0.0497,0.0128 v 0.017 c 0,0.0383 0.01701,0.0582 0.0497,0.0582 0.044,0 0.0667,-0.0355 0.0667,-0.10786 z m 0.0412,0.20714 c 0,-0.0497 -0.0241,-0.0738 -0.0738,-0.0738 -0.061,0 -0.0922,0.0298 -0.0922,0.0908 0,0.061 0.0284,0.0908 0.0837,0.0908 0.0553,0 0.0823,-0.0355 0.0823,-0.10782 z m -0.663991,-0.33202 c 0.0269,0 0.0412,-0.017 0.0412,-0.0497 0,-0.0397 -0.01699,-0.0667 -0.0497,-0.0837 -0.0284,0.0113 -0.0426,0.0369 -0.0426,0.0752 0,0.0383 0.01699,0.0581 0.0511,0.0581 z m 0.64841,0.64838 c 0.006,-0.006 0.007,-0.017 0.007,-0.034 0,-0.0156 -0.007,-0.0383 -0.0241,-0.0652 -0.006,0.004 -0.008,0.0156 -0.008,0.0326 0,0.017 0.008,0.0384 0.02561,0.0667 z m -0.449779,-0.4653 0.008,-0.0497 c 0.061,0 0.0922,-0.0198 0.0922,-0.0581 0,-0.0511 -0.02551,-0.0753 -0.0752,-0.0753 -0.01709,0 -0.0341,0.0142 -0.0497,0.0411 -0.0397,-0.017 -0.0639,-0.0241 -0.0752,-0.0241 -0.0837,0 -0.124839,0.0611 -0.124839,0.18161 0,0.0837 0.044,0.1178 0.13335,0.10078 l 0.008,0.0411 c -0.0454,0.0113 -0.0695,0.0383 -0.0752,0.0837 -0.01699,-0.017 -0.0412,-0.0255 -0.0752,-0.0255 l -0.009,-0.017 c -0.0114,-0.006 -0.01839,-0.007 -0.0241,-0.007 -0.0284,0 -0.0425,0.0411 -0.0425,0.12348 0,0.061 0.02551,0.0922 0.0752,0.0922 0.0497,0 0.0809,-0.0227 0.0922,-0.0667 l 0.0326,0.0255 c -0.01701,0.0156 -0.02551,0.0326 -0.02551,0.0496 0,0.0269 0.0113,0.0469 0.034,0.0582 0.0227,0.0113 0.0411,0.0156 0.0582,0.0156 0.0269,0 0.0411,-0.0185 0.0411,-0.0582 0,-0.0212 -0.0113,-0.044 -0.0326,-0.0653 0.044,-0.017 0.061,-0.061 0.0497,-0.13338 0.088,0 0.13335,-0.0412 0.13335,-0.12481 0,-0.10503 -0.0497,-0.14193 -0.1504,-0.10782 z m -0.0752,0.62281 c 0.01701,-0.0114 0.02551,-0.0269 0.02551,-0.0497 0,-0.0227 -0.0113,-0.0383 -0.0326,-0.0496 -0.0114,0.006 -0.01701,0.0199 -0.01701,0.0411 0,0.0171 0.008,0.0369 0.0241,0.0582 z m -0.123449,-0.0241 -0.01701,-0.0426 c -0.006,-0.006 -0.01421,-0.009 -0.02551,-0.009 -0.01561,0 -0.0241,0.0114 -0.0241,0.0341 l 0.0241,0.0326 0.0425,-0.0156 z m -1.330801,-0.4072 v -0.017 c 0,-0.0439 -0.0411,-0.0666 -0.124841,-0.0666 h -0.008 c -0.006,0.006 -0.008,0.0113 -0.008,0.017 0,0.0213 0.0227,0.0383 0.0667,0.0497 0.0284,0.0213 0.0511,0.0326 0.0667,0.0326 0.006,0 0.008,-0.006 0.008,-0.0156 z m -0.9066,-4.12432 -0.0496,0.69095 c -0.171672,0.0709 -0.33201,0.10779 -0.482412,0.10779 -0.0837,0 -0.205709,-0.0142 -0.370269,-0.0425 -0.163171,-0.0269 -0.28662,-0.0412 -0.368911,-0.0412 -0.0837,0 -0.246859,0.009 -0.490889,0.0256 -0.205711,0.0113 -0.3717,0.0142 -0.499401,0.008 0,0.0383 -0.01561,0.0837 -0.0497,0.13624 -0.0326,0.0525 -0.0497,0.0964 -0.0497,0.12906 0,0.044 0.01421,0.11634 0.0412,0.21568 0.0284,0.10072 0.0426,0.1759 0.0426,0.22559 0.0326,0 0.0766,0.01 0.131921,0.0326 0.0553,0.0228 0.0951,0.0369 0.116329,0.0411 0.10074,0.0171 0.214252,0.0256 0.34195,0.0256 0.0553,0 0.140431,-0.004 0.2568,-0.0128 0.116332,-0.008 0.20288,-0.0128 0.258191,-0.0128 0.133389,0 0.24121,0.0171 0.323508,0.0511 0.0454,0.044 0.124841,0.0766 0.241171,0.0994 0.061,0.0114 0.0894,0.0993 0.0837,0.2653 v 0.10922 c -0.0383,0.044 -0.0582,0.0965 -0.0582,0.15752 0,0.0383 0.01,0.095 0.0284,0.17027 0.0199,0.0752 0.0298,0.13193 0.0298,0.17025 h 0.008 c -0.01701,0.0283 -0.0412,0.0752 -0.0752,0.14183 h -0.0993 c -0.156052,0 -0.38307,0.0114 -0.682411,0.0327 -0.299371,0.0227 -0.5207,0.034 -0.663991,0.034 -0.0951,0 -0.185869,-0.003 -0.275248,-0.009 -0.006,0.0326 -0.0426,0.0766 -0.11207,0.13195 -0.0695,0.0568 -0.103571,0.10357 -0.103571,0.14186 0,0.044 0.0326,0.10357 0.0993,0.17879 0.0667,0.0752 0.0993,0.13474 0.0993,0.17871 0.0284,0 0.0667,0.0199 0.116332,0.0582 0.0511,0.0383 0.103568,0.0582 0.158909,0.0582 0.0936,0 0.23409,0.004 0.41996,0.0128 0.18583,0.009 0.3249,0.0128 0.419959,0.0128 v 0.0242 c -0.006,0.061 0.0241,0.0922 0.0908,0.0922 0.0383,0 0.0582,-0.0199 0.0582,-0.0582 0,-0.0171 -0.006,-0.0397 -0.01699,-0.0667 h -0.007 c 0.19295,-0.006 0.34049,-0.0284 0.439811,-0.0667 0.0326,0.044 0.061,0.078 0.0837,0.0994 -0.13339,0 -0.20006,0.0553 -0.20006,0.16595 0,0.0837 0.044,0.12488 0.133382,0.12488 0.127669,0 0.191519,-0.0582 0.191519,-0.1745 0,-0.0383 -0.0113,-0.0639 -0.034,-0.0738 l 0.0582,0.0156 -0.0241,-0.0241 c 0.0326,0.0326 0.0738,0.0496 0.123449,0.0496 0.0454,0 0.0951,-0.0113 0.150371,-0.034 0,0.078 0.006,0.1887 0.01709,0.33342 l -0.0341,0.0496 0.0411,0.0582 0.034,0.4653 c -0.044,0.0341 -0.078,0.0611 -0.0993,0.0837 h -0.008 c -0.0113,-0.0284 -0.0312,-0.0426 -0.0582,-0.0426 -0.0553,0 -0.0894,0.0256 -0.100711,0.0753 -0.320648,0.0439 -0.57037,0.0695 -0.747731,0.0752 0.0227,-0.0284 0.0341,-0.0525 0.0341,-0.0752 0,-0.0384 -0.0341,-0.0582 -0.10074,-0.0582 -0.0993,0 -0.148971,0.034 -0.148971,0.0993 0,0.017 0.003,0.034 0.008,0.0511 -0.0511,0.004 -0.103582,0.007 -0.15888,0.007 -0.11068,0 -0.232701,-0.01 -0.366051,-0.0326 v -0.0497 l -0.0241,-0.0255 c -0.034,0.0171 -0.0468,0.0397 -0.0412,0.0667 h 0.007 c -0.0653,0 -0.16742,-0.003 -0.302199,-0.008 -0.13621,-0.006 -0.239781,-0.009 -0.312139,-0.009 -0.01699,-0.0156 -0.0341,-0.0242 -0.0497,-0.0242 -0.0114,0 -0.02551,0.009 -0.0426,0.0242 h -0.29083 l 0.009,0.009 c -0.0269,0 -0.0695,-0.006 -0.124838,-0.0156 h 0.008 c 0.0284,-0.017 0.0412,-0.034 0.0412,-0.0511 0,-0.0269 -0.0269,-0.0412 -0.0823,-0.0412 -0.0341,0 -0.0497,0.009 -0.0497,0.0255 0,-0.006 0.01,0.0156 0.0326,0.0667 -0.371742,-0.0511 -0.543412,-0.0752 -0.515022,-0.0752 l 0.0412,0.0411 c -0.0269,-0.0269 -0.0724,-0.0611 -0.13339,-0.0993 0,-0.0284 0,-0.0553 0,-0.0837 0,-0.0383 -0.0412,-0.16313 -0.124841,-0.37309 0.0284,-0.12774 0.0426,-0.27246 0.0426,-0.43276 0,-0.0951 -0.009,-0.24114 -0.02561,-0.4412 -0.01701,-0.19863 -0.0213,-0.35189 -0.01701,-0.45689 v -0.1248 c 0.0667,-0.0823 0.10074,-0.20718 0.10074,-0.37457 0,-0.061 -0.006,-0.15468 -0.01699,-0.28235 -0.0113,-0.12767 -0.01701,-0.22416 -0.01701,-0.29087 0,-0.13335 0.01701,-0.24403 0.0511,-0.33198 h -0.008 c 0.0766,-0.0893 0.11634,-0.20854 0.11634,-0.35754 0,-0.0893 -0.0284,-0.26673 -0.0837,-0.53204 0.01701,0.0497 0.044,0.0752 0.0837,0.0752 0.110649,0 0.165989,-0.0667 0.165989,-0.20003 0,-0.0937 -0.0412,-0.14193 -0.124841,-0.14193 -0.0724,0 -0.122018,0.0553 -0.148979,0.16746 -0.0227,-0.0951 -0.0341,-0.17597 -0.0341,-0.24121 0,-0.0951 0.0227,-0.16177 0.0667,-0.20006 v -0.008 c 0.0269,-0.0227 0.0582,-0.11354 0.0908,-0.27381 0.139041,-0.006 0.353261,-0.0312 0.64552,-0.0753 0.290861,-0.044 0.51077,-0.0667 0.659741,-0.0667 v -0.008 c 0.078,0.0397 0.16742,0.0581 0.266729,0.0581 0.70372,0 1.34076,0.0426 1.911091,0.12487 l -0.0241,-0.0171 c 0.0553,0.0568 0.0852,0.11497 0.0908,0.17593 0,-0.017 0,0.0496 0,0.19862 l 0.01701,-0.008 z m -1.76211,-0.30788 c -0.034,-0.0383 -0.0724,-0.0582 -0.116332,-0.0582 -0.0284,0 -0.0525,0.006 -0.0752,0.017 0,0.0397 0.044,0.0582 0.13335,0.0582 0.01701,0 0.0355,-0.006 0.0582,-0.017 z m -0.59872,0.0426 c 0,-0.0611 -0.044,-0.0922 -0.13335,-0.0922 -0.061,0 -0.0908,0.0284 -0.0908,0.0837 0,0.0553 0.0412,0.0837 0.124839,0.0837 0.0667,0 0.0993,-0.0255 0.0993,-0.0752 z m 0.15748,0.47387 c 0,-0.044 -0.01839,-0.0667 -0.0582,-0.0667 -0.0326,0.0171 -0.0497,0.044 -0.0497,0.0823 0,0.0454 0.01701,0.0667 0.0497,0.0667 0.0397,0 0.0582,-0.0269 0.0582,-0.0823 z m -0.87253,-0.42422 c 0.034,-0.0327 0.0497,-0.0667 0.0497,-0.0994 0,-0.0553 -0.0269,-0.0837 -0.0823,-0.0837 -0.0724,0 -0.0979,0.0497 -0.0752,0.15037 -0.0894,0 -0.133379,0.0213 -0.133379,0.0653 0,0.0724 0.0667,0.10925 0.200059,0.10925 0.0724,0 0.10782,-0.0198 0.10782,-0.0581 0,-0.0228 -0.0227,-0.0511 -0.0667,-0.0837 z m 0.0922,0.27379 c 0,-0.0497 -0.034,-0.0738 -0.100711,-0.0738 -0.0497,0 -0.0738,0.0213 -0.0738,0.0653 0,0.0567 0.0326,0.0837 0.0993,0.0837 0.0497,0 0.0752,-0.0255 0.0752,-0.0752 z m 0.31497,0.34906 c -0.0497,0 -0.0752,0.061 -0.0752,0.18297 0,0.0227 0.008,0.0426 0.0255,0.0582 0.044,-0.0327 0.0667,-0.0936 0.0667,-0.18302 0,-0.0156 -0.006,-0.0355 -0.01699,-0.0582 z m -0.747691,-0.41574 c 0,-0.0269 -0.0113,-0.0412 -0.034,-0.0412 -0.0326,0 -0.0496,0.0199 -0.0496,0.0582 0,0.0383 0.01701,0.0582 0.0496,0.0582 0.0227,-0.0113 0.034,-0.0355 0.034,-0.0752 z m 2.992231,4.16554 c -0.0553,0 -0.0823,0.0284 -0.0823,0.0837 0,0.0611 0.0269,0.0908 0.0823,0.0908 0.0553,0 0.0837,-0.0297 0.0837,-0.0908 0,-0.0553 -0.0284,-0.0837 -0.0837,-0.0837 z m -0.431331,-0.32494 c -0.0113,-0.01 -0.02551,-0.0156 -0.0425,-0.0156 -0.0383,0 -0.0582,0.0185 -0.0582,0.0582 0,0.0269 0.01421,0.0412 0.0425,0.0412 0.0383,0 0.0582,-0.0227 0.0582,-0.0667 z m 0.431331,0.57465 c -0.0383,0 -0.0582,0.0184 -0.0582,0.0582 0,0.0439 0.0199,0.0666 0.0582,0.0666 0.0397,0 0.0582,-0.0227 0.0582,-0.0666 0,-0.0398 -0.01841,-0.0582 -0.0582,-0.0582 z m -0.390181,-0.33344 c -0.0383,0 -0.0582,0.0199 -0.0582,0.0582 0,0.0723 0.0326,0.10918 0.0993,0.10918 0.0397,0 0.0582,-0.0227 0.0582,-0.0667 0,-0.0667 -0.0326,-0.10071 -0.0993,-0.10071 z m -0.473879,-0.43984 c -0.061,0 -0.0752,0.0411 -0.0412,0.12487 l -0.0426,-0.009 c -0.061,0 -0.0908,0.0298 -0.0908,0.0908 0,0.061 0.0241,0.0922 0.0752,0.0922 0.0383,0 0.0738,-0.0284 0.10783,-0.0837 0.0326,0.044 0.0667,0.0667 0.0993,0.0667 0.0383,0 0.0582,-0.0255 0.0582,-0.0752 0,-0.044 -0.01701,-0.0894 -0.0497,-0.1362 -0.034,-0.0482 -0.0724,-0.071 -0.11634,-0.071 z m 0.27382,0.56471 -0.0582,-0.0156 c -0.01561,0.0156 -0.0241,0.0298 -0.0241,0.0411 0,0.0212 0.01561,0.0326 0.0496,0.0326 0.0269,0 0.0412,-0.0114 0.0412,-0.0326 0,-0.0113 -0.003,-0.0199 -0.008,-0.0255 z m 0.3249,0.27525 -0.0497,-0.0256 c -0.034,-0.0383 -0.0724,-0.0582 -0.116332,-0.0582 -0.106389,0 -0.158909,0.0469 -0.158909,0.14189 0,0.0936 0.0426,0.1405 0.124881,0.1405 0.0837,0 0.13621,-0.044 0.15748,-0.13196 0.034,-0.006 0.0511,-0.0199 0.0511,-0.0426 l -0.009,-0.0241 z m -0.773221,-0.49947 c -0.078,0 -0.116329,0.0341 -0.116329,0.0994 0,0.0511 0.0213,0.0752 0.0667,0.0752 0.0766,0 0.11634,-0.0355 0.11634,-0.10779 0,-0.044 -0.0227,-0.0667 -0.0667,-0.0667 z m 0.27382,0.44838 c 0,-0.11068 -0.0525,-0.19584 -0.15748,-0.25683 -0.006,0.006 -0.008,0.0113 -0.008,0.0171 0,0.0269 0.0199,0.0738 0.0582,0.14043 0.0383,0.0667 0.0724,0.0994 0.0993,0.0994 h 0.008 z m -0.672499,-0.70657 c -0.0454,0 -0.0667,0.0198 -0.0667,0.0582 0,0.034 0.01561,0.0511 0.0497,0.0511 0.044,0 0.0667,-0.0227 0.0667,-0.0667 0,-0.0284 -0.01699,-0.0426 -0.0497,-0.0426 z m -0.415679,-0.30646 c -0.106432,0 -0.158912,0.0355 -0.158912,0.10783 0,0.0327 0.0199,0.0497 0.0582,0.0497 0.0951,0 0.141859,-0.0411 0.141859,-0.12484 0,-0.0227 -0.01421,-0.0326 -0.0411,-0.0326 z m 0.639868,0.88958 c 0,-0.11211 -0.0468,-0.16738 -0.141888,-0.16738 -0.044,0 -0.0667,0.0255 -0.0667,0.0752 0,0.1163 0.0454,0.1745 0.133339,0.1745 0.0497,0 0.0752,-0.0269 0.0752,-0.0823 z m 0.215651,0.19863 c -0.0383,0 -0.0866,0.0184 -0.144721,0.0539 -0.0582,0.0369 -0.088,0.071 -0.088,0.105 0,0.0326 0.0199,0.0496 0.0582,0.0496 0.0383,0 0.0866,-0.0198 0.14189,-0.0581 0.0553,-0.0397 0.0823,-0.0752 0.0823,-0.10782 0,-0.0284 -0.01561,-0.0426 -0.0497,-0.0426 z m -0.607261,-0.55617 c -0.0269,0 -0.0553,0.01 -0.0823,0.0326 h -0.008 c -0.0326,-0.017 -0.0667,-0.0255 -0.0993,-0.0255 -0.100748,0 -0.150399,0.0568 -0.150399,0.16746 0,0.0667 0.0227,0.0993 0.0667,0.0993 0.044,0 0.0894,-0.0255 0.13339,-0.0752 0.0213,0.0397 0.0582,0.0582 0.10782,0.0582 0.0993,0 0.148969,-0.044 0.148969,-0.13195 0,-0.0837 -0.0383,-0.12487 -0.116369,-0.12487 z m -0.007,0.4654 c -0.0454,0 -0.0667,0.027 -0.0667,0.0823 0,0.0723 0.0298,0.10922 0.0908,0.10922 0.0497,0 0.0752,-0.0284 0.0752,-0.0837 0,-0.0724 -0.034,-0.10783 -0.0993,-0.10783 z m -0.76612,-0.57465 c 0.0113,-0.004 0.01701,-0.0128 0.01701,-0.0241 0,-0.044 -0.01839,-0.0667 -0.0582,-0.0667 -0.006,0 -0.01421,0.003 -0.0241,0.009 -0.0113,0.006 -0.01699,0.017 -0.01699,0.0326 0,0.0397 0.01699,0.0582 0.0496,0.0582 0.0114,0 0.0227,-0.003 0.0326,-0.009 z m 0.283761,0.39161 c -0.11634,0 -0.174501,0.0525 -0.174501,0.15748 0,0.078 0.0383,0.11633 0.116332,0.11633 0.110649,0 0.165989,-0.0525 0.165989,-0.15748 0,-0.078 -0.0369,-0.11633 -0.10782,-0.11633 z m -0.881079,-0.11637 c -0.0113,-0.006 -0.0227,-0.009 -0.034,-0.009 -0.061,0 -0.0936,0.0298 -0.0993,0.0908 0.006,0.0113 0.01421,0.017 0.0241,0.017 0.0724,0 0.10922,-0.0327 0.10922,-0.0993 z m -0.61573,-0.53201 c 0.01701,0.0667 0.0199,0.18015 0.008,0.34049 -0.01701,0.16035 -0.0383,0.27096 -0.0667,0.33202 -0.122009,0.0397 -0.204311,0.0978 -0.24829,0.1745 l 0.0326,-0.0652 c -0.0936,0 -0.241199,0.003 -0.441229,0.007 -0.19295,0 -0.340519,0 -0.439841,0 -0.0113,-0.0212 -0.0284,-0.0354 -0.0496,-0.0412 l -0.034,0.0412 h -0.456861 c -0.027,-0.0936 -0.0582,-0.14043 -0.0908,-0.14043 -0.0227,0.0114 -0.0369,0.0326 -0.0426,0.0667 -0.01561,-0.0113 -0.0355,-0.017 -0.0582,-0.017 -0.0553,0 -0.0823,0.0298 -0.0823,0.0908 l -0.10074,-0.007 v -0.0426 c 0.0284,0.017 0.0511,0.0255 0.0667,0.0255 0.01709,0 0.02561,-0.009 0.02561,-0.0255 0,-0.0213 -0.01421,-0.0482 -0.0412,-0.078 -0.0284,-0.0312 -0.0567,-0.0468 -0.0837,-0.0468 l -0.0341,0.0255 v 0.009 c 0.006,-0.006 -0.01,-0.009 -0.0497,-0.009 -0.0993,0 -0.148979,0.0411 -0.148979,0.12487 h -0.01701 c -0.006,-0.006 -0.0114,-0.0199 -0.01701,-0.0411 l -0.0326,-0.0426 -0.008,0.0497 0.01701,0.0255 v 0 l -0.02551,-0.009 c -0.01561,0.006 -0.0553,0.006 -0.116369,0 -0.0213,-0.0269 -0.0525,-0.0412 -0.0908,-0.0412 -0.0341,0 -0.0724,0.0142 -0.116369,0.0412 H 77.53329 l -0.0326,-0.017 0.01699,-0.0241 c 0.01561,0.0171 0.0383,0.0241 0.0653,0.0241 0.061,0 0.0865,-0.0468 0.0752,-0.14047 0.078,0 0.116339,-0.0369 0.116339,-0.10782 0,-0.0723 -0.0411,-0.10925 -0.124851,-0.10925 -0.0993,0 -0.13195,0.0539 -0.0993,0.15891 -0.0383,0.0114 -0.061,0.0355 -0.0667,0.0752 l -0.0412,-0.009 c -0.006,-0.0454 -0.008,-0.0865 -0.008,-0.12481 0,-0.0554 0.0113,-0.13053 0.0326,-0.22416 0.0341,-0.11636 0.054,-0.19437 0.0582,-0.23273 0.0454,-0.017 0.0724,-0.0425 0.0837,-0.0752 0.0284,0.0269 0.0496,0.0412 0.0667,0.0412 0.0114,0 0.0199,-0.006 0.0241,-0.0171 -0.004,-0.044 -0.0497,-0.0823 -0.13195,-0.1163 l -0.01701,-0.0156 c 0,0.0269 0.0298,-0.24686 0.0908,-0.8229 0,0.061 0.034,0.0908 0.100708,0.0908 0.0497,0 0.0738,-0.0255 0.0738,-0.0752 0,-0.061 -0.0355,-0.0908 -0.107828,-0.0908 -0.0326,0 -0.0553,0.0171 -0.0667,0.0497 v -0.0581 c 0.006,-0.0936 -0.01561,-0.2228 -0.0653,-0.38593 -0.051,-0.1646 -0.0752,-0.27102 -0.0752,-0.32065 0,-0.0284 0.01421,-0.0681 0.0412,-0.12062 0.0284,-0.0525 0.0412,-0.0951 0.0412,-0.12906 0,-0.044 -0.01421,-0.11354 -0.0454,-0.20714 -0.0298,-0.0951 -0.0454,-0.16745 -0.0454,-0.21708 0,-0.088 0.01839,-0.21568 0.0539,-0.38163 0.0355,-0.16606 0.0539,-0.29087 0.0539,-0.3746 0,-0.078 -0.008,-0.15183 -0.0241,-0.22415 0.0326,-0.0227 0.0653,-0.034 0.0993,-0.034 -0.006,0 0.0269,0.003 0.0993,0.009 l 0.008,0.008 c 0.0326,0.078 0.102179,0.11633 0.208568,0.11633 0.061,0 0.153231,-0.017 0.278072,-0.0539 0.124878,-0.0355 0.21707,-0.0539 0.278098,-0.0539 0.0993,0 0.150371,0.0497 0.150371,0.15037 0,0.0596 -0.01699,0.13764 -0.051,0.2327 -0.0326,0.0326 -0.0496,0.0766 -0.0496,0.13195 0,0.0553 0.0213,0.139 0.0624,0.24972 0.0426,0.11062 0.0624,0.19434 0.0624,0.24968 l -0.0326,1.18892 -0.01701,-0.034 c -0.0227,-0.006 -0.0383,-0.009 -0.0496,-0.009 -0.0227,0 -0.0383,0.007 -0.0497,0.0213 -0.0113,0.0142 -0.01701,0.0298 -0.01701,0.0454 0,0.0454 0.0284,0.0667 0.0837,0.0667 0.0213,0 0.0383,-0.008 0.0497,-0.0241 l -0.009,0.29935 -0.0411,0.0156 v 0.0426 c -0.0113,0.0213 -0.01701,0.044 -0.01701,0.0652 0,0.0341 0.0199,0.0639 0.0582,0.0922 l -0.008,0.26531 h -0.009 c -0.0326,0.0511 -0.0496,0.0922 -0.0496,0.12487 l 0.0496,-0.0327 v 0.0241 c 0.006,0 0.0113,0.003 0.01699,0.009 0.006,0.0397 0.0199,0.0581 0.0412,0.0581 0.0284,-0.006 0.0468,-0.0184 0.0582,-0.0411 0.16034,0.044 0.290859,0.0667 0.39157,0.0667 0.01561,0.0113 0.0326,0.017 0.0497,0.017 0.0269,0 0.0525,-0.0113 0.0738,-0.034 l 0.008,-0.0412 h 0.01699 c 0.01701,0.0383 0.0355,0.0582 0.0582,0.0582 0.0227,-0.0171 0.0284,-0.0355 0.01709,-0.0582 0.0553,0.006 0.151799,0.0326 0.290838,0.0823 0.12201,0.0397 0.221332,0.0596 0.29937,0.0596 0.0667,0 0.13053,-0.0142 0.191522,-0.0426 0.126269,0 0.232698,0.044 0.31496,0.13338 0,0.006 -0.003,0.009 -0.008,0.009 z m -1.928101,-1.43013 c 0.006,-0.0113 0.008,-0.0255 0.008,-0.0411 0,0 -0.003,-0.0113 -0.008,-0.0341 -0.006,-0.006 -0.01421,-0.009 -0.02561,-0.009 -0.044,0 -0.0652,0.0255 -0.0652,0.0752 0.01,0.0284 0.0213,0.0412 0.0326,0.0412 0.01699,0 0.0355,-0.01 0.0582,-0.0326 z m 1.55497,1.53793 c 0,-0.0326 -0.01421,-0.0497 -0.0426,-0.0497 -0.044,0 -0.0652,0.0213 -0.0652,0.0667 0,0.0269 0.01561,0.0412 0.0497,0.0412 0.0383,0 0.0582,-0.0198 0.0582,-0.0582 z m -1.679851,-1.47125 c 0,-0.0724 -0.0383,-0.10782 -0.116329,-0.10782 -0.0724,0 -0.10782,0.0383 -0.10782,0.11633 0,0.0723 0.0355,0.10786 0.10782,0.10786 0.078,0 0.116329,-0.0383 0.116329,-0.11637 z m 0.15752,0.33201 c 0.006,-0.006 0.008,-0.0142 0.008,-0.0242 0,-0.034 -0.01839,-0.0496 -0.0582,-0.0496 l -0.0326,0.0156 c -0.006,0.0113 -0.008,0.0199 -0.008,0.0255 0,0.0327 0.01699,0.0497 0.0497,0.0497 l 0.0412,-0.017 z m 1.19743,1.00592 -0.0412,0.017 c 0,-0.0723 -0.0312,-0.10782 -0.0922,-0.10782 -0.0383,0 -0.0681,0.0184 -0.0908,0.0582 -0.0114,-0.034 -0.0326,-0.0496 -0.0667,-0.0496 -0.10496,0 -0.15748,0.0468 -0.15748,0.14043 0,0.0894 0.044,0.13335 0.133379,0.13335 0.0497,0 0.088,-0.0284 0.11633,-0.0837 0.0269,0.0227 0.0624,0.0227 0.107831,0 0,0.0553 0.027,0.0837 0.0823,0.0837 0.078,0 0.116329,-0.0284 0.116329,-0.0837 0,-0.0709 -0.0355,-0.10779 -0.10782,-0.10779 z m -1.15489,-0.8726 c -0.01701,-0.0284 -0.0369,-0.0411 -0.0582,-0.0411 -0.0284,0.0114 -0.0426,0.0298 -0.0426,0.0581 0,0.0213 0.0114,0.0327 0.0341,0.0327 0.044,0 0.0667,-0.0171 0.0667,-0.0497 z m -0.208558,-0.14894 c -0.0113,-0.006 -0.0213,-0.009 -0.0326,-0.009 -0.0497,0 -0.0752,0.0242 -0.0752,0.0738 0,0.0454 0.0199,0.0667 0.0582,0.0667 0.0497,0 0.0752,-0.0241 0.0752,-0.0738 0,-0.017 -0.008,-0.0369 -0.02558,-0.0581 z m -0.282332,-0.0922 c 0,-0.0553 -0.0326,-0.0837 -0.0993,-0.0837 l -0.0426,0.0255 c -0.006,0.0113 -0.007,0.0227 -0.007,0.0341 0,0.0497 0.0298,0.0738 0.0908,0.0738 0.0383,0 0.0582,-0.0156 0.0582,-0.0496 z m 1.55498,1.54646 c -0.061,0 -0.0922,0.0326 -0.0922,0.0993 0,0.0227 0.008,0.0397 0.02551,0.0497 0.01699,0.0113 0.0298,0.017 0.0411,0.017 0.0553,0 0.0837,-0.0326 0.0837,-0.0993 0,-0.044 -0.0199,-0.0667 -0.0582,-0.0667 z m -1.19744,-1.10526 c 0,-0.0397 -0.01699,-0.0581 -0.0496,-0.0581 -0.0497,0 -0.0752,0.0326 -0.0752,0.0993 0,0.0269 0.01421,0.0411 0.0412,0.0411 0.0553,0 0.0837,-0.0269 0.0837,-0.0823 z m 0.872532,0.94778 c 0.0114,-0.0114 0.01699,-0.0256 0.01699,-0.0426 0,-0.0496 -0.02551,-0.0737 -0.0752,-0.0737 -0.044,0 -0.0667,0.0241 -0.0667,0.0737 0.0113,0.0227 0.0426,0.0426 0.0922,0.0582 l -0.034,0.0497 c 0.006,0.0397 0.0227,0.0581 0.0497,0.0581 0.0667,0 0.10075,-0.0326 0.10075,-0.0993 0,-0.0269 -0.0284,-0.0355 -0.0837,-0.0241 z m -0.781722,-0.74061 -0.007,-0.0497 -0.0425,0.009 c -0.0114,0.0113 -0.01561,0.0184 -0.01561,0.0241 0,0.0171 0.01281,0.0255 0.0411,0.0255 0.0113,0 0.0199,-0.003 0.0241,-0.008 z m -0.498009,-0.43984 c 0.006,-0.0113 0.008,-0.0255 0.008,-0.0426 0,-0.0439 -0.01421,-0.0766 -0.0425,-0.0993 -0.01,0.0113 -0.01561,0.0255 -0.01561,0.0411 0,0.0497 0.01561,0.0837 0.0496,0.10071 z m 1.038561,0.99741 v -0.009 c 0.0497,-0.017 0.0752,-0.0496 0.0752,-0.0993 0,-0.0667 -0.0326,-0.10078 -0.0993,-0.10078 -0.100751,0 -0.15041,0.0426 -0.15041,0.12491 0,0.0553 0.0341,0.0865 0.10075,0.0922 -0.0397,0.0383 -0.0582,0.0652 -0.0582,0.0823 0,0.0227 0.01561,0.034 0.0497,0.034 0.0823,0 0.124841,-0.0255 0.124841,-0.0752 0,-0.0171 -0.01421,-0.0341 -0.0425,-0.0496 z m -0.805892,-0.56611 c 0.0269,-0.006 0.0411,-0.0269 0.0411,-0.0667 0,-0.0709 -0.0213,-0.10782 -0.0667,-0.10782 -0.0326,0 -0.0497,0.0256 -0.0497,0.0753 0,0.0113 0.006,0.0326 0.01699,0.0667 -0.006,-0.006 -0.01421,-0.009 -0.02551,-0.009 -0.0213,0 -0.0326,0.0114 -0.0326,0.0326 0,0.0284 0.01701,0.0426 0.0496,0.0426 l 0.02561,-0.017 v -0.0326 l 0.0411,0.0156 z m 0.573191,0.45828 c 0,-0.0397 -0.01699,-0.0582 -0.0496,-0.0582 -0.0837,0 -0.124852,0.0469 -0.124852,0.1405 0,0.034 0.01701,0.0497 0.0497,0.0497 0.0837,0 0.124839,-0.044 0.124839,-0.13196 z m 0.56611,0.53912 c 0.006,-0.0156 0.008,-0.0298 0.008,-0.0411 0,-0.0326 -0.01421,-0.0496 -0.0426,-0.0496 -0.0553,0 -0.0752,0.0326 -0.0582,0.0993 h -0.0411 c -0.0383,0.017 -0.061,0.0369 -0.0667,0.0582 -0.0383,-0.0723 -0.0866,-0.10783 -0.141861,-0.10783 -0.044,0 -0.071,0.0284 -0.0823,0.0837 l -0.0412,-0.0171 c -0.0284,0.0113 -0.0426,0.027 -0.0426,0.0497 0.0114,0.0284 0.0312,0.0412 0.0582,0.0412 l 0.0341,-0.0326 c 0.01,0.0667 0.0525,0.0993 0.124841,0.0993 0.0326,0 0.061,-0.0128 0.0823,-0.0411 v -0.008 c 0.006,0.0553 0.034,0.0837 0.0837,0.0837 0.0766,0 0.116372,-0.0341 0.116372,-0.10074 0,-0.027 -0.01421,-0.0581 -0.0426,-0.0908 l 0.0511,-0.0255 z m -1.464199,-1.29675 c -0.0652,0 -0.0993,0.0369 -0.0993,0.10783 -0.061,0 -0.0908,0.0142 -0.0908,0.0426 v 0.017 c 0.01561,0.01 0.0326,0.0213 0.0497,0.0327 0.0213,-0.006 0.0468,-0.0114 0.0752,-0.0171 0.0496,0.0397 0.0879,0.0582 0.116329,0.0582 0.0709,0 0.107821,-0.0355 0.107821,-0.10786 0,-0.0879 -0.0525,-0.13335 -0.158909,-0.13335 z m 1.057,1.14778 c -0.034,0 -0.0511,0.0199 -0.0511,0.0582 0,0.0496 0.01701,0.0751 0.0511,0.0751 0.044,0 0.0653,-0.0227 0.0653,-0.0667 0,-0.044 -0.0213,-0.0667 -0.0653,-0.0667 z m -0.424222,-0.3831 c 0.0269,0 0.0412,-0.0269 0.0412,-0.0823 0,-0.095 -0.0284,-0.14189 -0.0837,-0.14189 h -0.007 c -0.0227,0.0171 -0.0369,0.0397 -0.0425,0.0667 -0.0383,0 -0.0724,0.003 -0.0993,0.009 -0.0326,-0.0227 -0.061,-0.0341 -0.0837,-0.0341 0.0114,-0.027 0.01701,-0.0525 0.01701,-0.0738 0,-0.0341 -0.01421,-0.0497 -0.0411,-0.0497 -0.0341,0 -0.0653,0.0185 -0.0965,0.0582 -0.0298,0.0383 -0.0454,0.0737 -0.0454,0.10786 0,0.0326 0.01701,0.0496 0.0497,0.0496 0.01701,0 0.0397,-0.009 0.0667,-0.0255 0.01699,0.0511 0.044,0.0752 0.0837,0.0752 l 0.0411,-0.017 c 0.0114,0.017 0.02561,0.0256 0.0412,0.0256 0.01709,0 0.0397,-0.009 0.0667,-0.0256 l 0.02551,0.017 c 0.0113,0.0284 0.027,0.0411 0.0497,0.0411 h 0.01699 z m 0.01561,0.24972 -0.0326,-0.0241 -0.02551,0.0411 0.034,0.0171 z m -0.448352,-0.54903 c -0.0113,-0.0156 -0.0284,-0.0241 -0.0497,-0.0241 -0.01701,0 -0.0312,0.006 -0.0411,0.017 -0.0113,0.0156 -0.009,0.0298 0.007,0.0411 -0.061,0 -0.0908,0.0298 -0.0908,0.0908 0,0.017 0.0113,0.0312 0.0326,0.0426 0.006,0.006 0.01421,0.007 0.02551,0.007 0.078,0 0.0993,-0.0411 0.0667,-0.12345 0.0326,0 0.0497,-0.0171 0.0497,-0.0511 z m 0.7562,0.79023 c 0,0 -0.0298,-0.0355 -0.0908,-0.10782 0.0113,-0.017 0.01561,-0.034 0.01561,-0.0497 0,-0.078 -0.01839,-0.11633 -0.0582,-0.11633 0,0 -0.01,0.003 -0.0326,0.008 -0.0837,-0.0113 -0.124838,0.0156 -0.124838,0.0823 0,0.0113 0.0227,0.044 0.0667,0.0993 v 0.0341 c -0.0227,-0.006 -0.044,-0.009 -0.0667,-0.009 -0.0823,0 -0.124841,0.0355 -0.124841,0.10786 0,0.061 0.034,0.0922 0.100711,0.0922 0.061,0 0.102169,-0.0198 0.123439,-0.0581 h 0.01701 l 0.02551,-0.0341 c 0.0269,0.0114 0.0525,0.017 0.0738,0.017 0.0511,0 0.0752,-0.0227 0.0752,-0.0667 z m -0.59871,-0.53204 c -0.0553,0 -0.0823,0.0255 -0.0823,0.0752 0,0.0383 0.01839,0.0581 0.0582,0.0581 0.0553,0 0.0823,-0.0255 0.0823,-0.0752 0,-0.0383 -0.01839,-0.0582 -0.0582,-0.0582 z m 0.69945,0.74058 c -0.0511,0 -0.0752,0.0213 -0.0752,0.0653 0,0.0397 0.0213,0.0582 0.0667,0.0582 0.0497,0 0.0738,-0.0184 0.0738,-0.0582 0,-0.0439 -0.0213,-0.0653 -0.0653,-0.0653 z m -0.549058,-0.44974 -0.0411,-0.009 c -0.0114,-0.0667 -0.02551,-0.0993 -0.0426,-0.0993 h -0.009 c -0.006,0.017 -0.007,0.0326 -0.007,0.0497 0,0.078 0.01839,0.13618 0.0582,0.1745 l 0.007,-0.0412 c 0.006,0.006 0.0114,0.009 0.01699,0.009 0.0284,0 0.0411,-0.0142 0.0411,-0.0426 0,-0.0156 -0.007,-0.0298 -0.0241,-0.0412 z m -0.398682,-0.25677 c -0.0397,0 -0.0582,0.0298 -0.0582,0.0908 0,0.0837 0.0241,0.12481 0.0738,0.12481 0.0397,0 0.0582,-0.0283 0.0582,-0.0837 0,-0.088 -0.0241,-0.13196 -0.0738,-0.13196 z m -0.191518,-0.20006 -0.008,0.009 c -0.0284,-0.0397 -0.0582,-0.0582 -0.0922,-0.0582 -0.0823,0 -0.123442,0.0411 -0.123442,0.12484 0,0.0326 0.01842,0.0497 0.0582,0.0497 0.0326,0 0.061,-0.006 0.0823,-0.017 0,0.061 0.0199,0.0922 0.0582,0.0922 0.0341,0 0.0681,-0.0171 0.103569,-0.0511 0.0369,-0.0326 0.0553,-0.0638 0.0553,-0.0908 0,-0.044 -0.0454,-0.0639 -0.13335,-0.0582 z m 0.46537,0.66543 c -0.0667,0 -0.0993,0.0269 -0.0993,0.0823 0,0.0497 0.0269,0.0752 0.0823,0.0752 0.0724,0 0.10782,-0.0312 0.10782,-0.0908 0,-0.0454 -0.0298,-0.0667 -0.0908,-0.0667 z m -0.0837,-0.0752 c -0.01,-0.017 -0.0298,-0.0284 -0.0582,-0.034 -0.006,-0.027 -0.0114,-0.0469 -0.0199,-0.0582 -0.008,-0.01 -0.01561,-0.0156 -0.0213,-0.0156 -0.0724,0 -0.107831,0.0384 -0.107831,0.1164 -0.0227,0.0113 -0.034,0.0212 -0.034,0.0326 0,0.0284 0.034,0.0426 0.100708,0.0426 0.0993,0 0.146151,-0.0255 0.14047,-0.0752 v -0.009 z m -0.456859,-0.24972 c -0.0383,0 -0.0582,0.0227 -0.0582,0.0667 0,0.0554 0.0199,0.0838 0.0582,0.0838 0.0383,0 0.0582,-0.0256 0.0582,-0.0752 0,-0.0497 -0.0199,-0.0752 -0.0582,-0.0752 z m 0.0922,0.20857 -0.0426,-0.017 -0.01561,0.0326 0.0326,0.0256 0.02551,-0.0412 z m 0.0823,0.11637 c -0.0553,0 -0.0823,0.0269 -0.0823,0.0823 0,0.0553 0.0269,0.0837 0.0823,0.0837 0.0553,0 0.0837,-0.0312 0.0837,-0.0922 0,-0.0497 -0.0284,-0.0737 -0.0837,-0.0737 z m -0.241199,-0.0511 v -0.0156 c 0,-0.0171 -0.008,-0.0341 -0.0241,-0.0497 l -0.0511,-0.017 0.008,-0.0255 c -0.01,-0.0383 -0.0269,-0.0582 -0.0497,-0.0582 -0.0553,0 -0.0823,0.034 -0.0823,0.10075 0,0.044 0.0326,0.0525 0.0993,0.0241 l 0.0241,0.0411 c 0.0113,0.0114 0.02551,0.017 0.0425,0.017 l 0.0327,-0.017 z m 0.1745,0.20006 c -0.006,-0.017 -0.01561,-0.0241 -0.0326,-0.0241 -0.006,0 -0.02561,0.0128 -0.0582,0.0411 0.01699,0.0171 0.0298,0.0241 0.0411,0.0241 0.0284,-0.01 0.044,-0.0241 0.0497,-0.0411 z m -1.012999,-1.81177 c -0.061,0.10496 -0.12201,0.31214 -0.183002,0.62281 -0.0553,0.26677 -0.144719,0.45975 -0.26674,0.5817 -0.259619,0.0951 -0.523531,0.18586 -0.788834,0.27524 -0.354679,0.12202 -0.610081,0.18308 -0.766132,0.18308 -0.221332,0 -0.439841,-0.0667 -0.65549,-0.20006 -0.03972,-0.15469 -0.0823,-0.26109 -0.129095,-0.3164 -0.04683,-0.0553 -0.146148,-0.11636 -0.295122,-0.18304 -0.100708,-0.18729 -0.217075,-0.48377 -0.348998,-0.88811 0.06668,-0.13907 0.09932,-0.30224 0.09932,-0.4909 0,-0.0667 -0.0057,-0.16459 -0.01704,-0.29512 -0.01135,-0.13052 -0.01558,-0.22844 -0.01558,-0.29512 0,-0.23835 0.07093,-0.42987 0.215646,-0.57458 0.07804,-0.01 0.13621,-0.0936 0.1745,-0.24833 0.238385,-0.19434 0.537726,-0.31639 0.898091,-0.36601 0.0213,0.0171 0.04966,0.0241 0.0823,0.0241 0.0454,0 0.08087,-0.0156 0.107823,-0.0496 h 0.100743 c 0,0.0667 0.03261,0.10071 0.09932,0.10071 0.07236,0 0.10782,-0.0369 0.10782,-0.10922 0.100711,0.0113 0.191519,0.017 0.275244,0.017 -0.05534,0 -0.08373,0.0312 -0.08373,0.0922 0,0.0553 0.03264,0.0823 0.09932,0.0823 0.06103,0 0.09224,-0.0298 0.09224,-0.0908 0,-0.044 -0.0227,-0.0724 -0.06667,-0.0838 0.0227,0 0.0468,0.009 0.07518,0.0256 -0.01704,0.0213 -0.0028,0.0326 0.04115,0.0326 l 0.04966,-0.0241 c 0.05534,0.0212 0.09932,0.0411 0.13335,0.0581 -0.04966,0.0156 -0.07518,0.0497 -0.07518,0.0994 0,0.0879 0.04397,0.13335 0.13335,0.13335 0.02695,0 0.05817,-0.0113 0.09081,-0.0341 0,0.12202 0.02838,0.20854 0.08374,0.25823 -0.0114,0.0227 -0.01709,0.0412 -0.01709,0.0582 0,0.0383 0.01421,0.0582 0.0426,0.0582 0.01561,0 0.0326,-0.0113 0.0497,-0.034 l 0.22415,0.22555 -0.01701,0.0326 c 0.006,0.0171 0.0199,0.034 0.0412,0.0497 l 0.034,-0.0156 c 0.259659,0.315 0.3845,0.68105 0.374571,1.09676 v 0.19151 z m -0.86545,-1.78767 c 0,-0.0439 -0.0241,-0.0667 -0.07518,-0.0667 -0.04398,0 -0.06528,0.0199 -0.06528,0.0582 0,0.0496 0.02413,0.0751 0.07379,0.0751 0.0454,0 0.06667,-0.0227 0.06667,-0.0667 z m -0.307882,-0.10782 -0.03261,-0.034 -0.03264,0.034 0.03264,0.0327 z m 0.0582,0.16602 c 0,-0.0497 -0.0213,-0.0752 -0.06528,-0.0752 -0.04541,0 -0.06668,0.0284 -0.06668,0.0837 0,0.0554 0.01844,0.0823 0.05817,0.0823 0.04965,0 0.07379,-0.0298 0.07379,-0.0908 z m -0.248288,-0.29938 c 0,-0.0383 -0.0454,-0.0582 -0.133382,-0.0582 -0.08938,0 -0.133352,0.0198 -0.133352,0.0582 v 0.017 c 0,0.0269 0.04115,0.0412 0.124843,0.0412 0.09363,0 0.141891,-0.0199 0.141891,-0.0582 z m 0.614302,0.65692 c 0,-0.0667 -0.04112,-0.0994 -0.124839,-0.0994 -0.0823,0 -0.124841,0.0327 -0.124841,0.0994 0,0.0667 0.04254,0.0993 0.124841,0.0993 0.08373,0 0.124839,-0.0326 0.124839,-0.0993 z m 0.499438,0.5817 c -0.01709,-0.0213 -0.0398,-0.0327 -0.0667,-0.0327 -0.0284,0 -0.0497,0.0114 -0.0667,0.0327 0.01701,0.0227 0.0383,0.034 0.0667,0.034 0.0269,0 0.0497,-0.0113 0.0667,-0.034 z m -1.180447,-0.88962 c 0,-0.0724 -0.0227,-0.10782 -0.06668,-0.10782 -0.04966,0 -0.07518,0.0411 -0.07518,0.12487 0,0.0667 0.0227,0.0993 0.06667,0.0993 0.04966,0 0.07519,-0.0383 0.07519,-0.11633 z m -0.391578,-0.1163 c 0.01704,-0.0327 0.02556,-0.0794 0.02556,-0.1405 0,-0.0511 -0.0085,-0.0894 -0.02556,-0.11633 -0.0213,0.0269 -0.03261,0.071 -0.03261,0.13196 0,0.0553 0.01135,0.0979 0.03261,0.12487 z m 0.57462,0.39869 c 0,-0.0653 -0.04258,-0.0994 -0.124841,-0.0994 -0.07236,0 -0.10786,0.0312 -0.10786,0.0922 0,0.071 0.04115,0.10783 0.123446,0.10783 0.01135,0.0554 0.0454,0.0823 0.100746,0.0823 0.110646,0 0.165989,-0.0411 0.165989,-0.12488 0,-0.0383 -0.05248,-0.0581 -0.15748,-0.0581 z m -0.732102,-0.57322 -0.03264,-0.0326 -0.03404,0.0242 0.03404,0.034 0.03264,-0.0255 z m 0.290864,0.31639 c 0,-0.044 -0.02695,-0.0667 -0.08229,-0.0667 -0.05674,0 -0.0837,0.0227 -0.0837,0.0667 0,0.044 0.02978,0.0667 0.09078,0.0667 0.05109,0 0.07521,-0.0227 0.07522,-0.0667 z m 0.747689,0.87253 c 0.02839,-0.017 0.04255,-0.0354 0.04255,-0.0581 -0.0056,-0.0227 -0.01984,-0.0327 -0.04255,-0.0327 -0.02127,0.01 -0.03264,0.0241 -0.03264,0.0412 0,0.0212 0.01135,0.0383 0.03264,0.0496 z m -1.230067,-1.27122 c 0,-0.0511 -0.01844,-0.0752 -0.05817,-0.0752 -0.03832,0 -0.0582,0.024 -0.0582,0.0752 0,0.0497 0.01987,0.0738 0.0582,0.0738 0.03972,0 0.05817,-0.0241 0.05817,-0.0738 z m 0.581697,0.78887 c 0,-0.0269 -0.01561,-0.0412 -0.04966,-0.0412 -0.03264,0 -0.04966,0.0142 -0.04966,0.0412 0,0.0284 0.01704,0.0411 0.04966,0.0411 0.03404,0 0.04966,-0.0128 0.04966,-0.0411 z m -0.431331,-0.34052 c -0.01132,-0.0723 -0.03121,-0.10786 -0.05817,-0.10786 -0.06099,0 -0.0922,0.0582 -0.0922,0.17454 0,0.061 0.02551,0.0936 0.07518,0.0993 0.02839,-0.0171 0.04966,-0.0412 0.06668,-0.0753 0.0227,0.0227 0.04683,0.0341 0.07522,0.0341 0.04966,0 0.07375,-0.0284 0.07375,-0.0838 0,-0.0439 -0.0213,-0.0667 -0.06667,-0.0667 -0.01561,0 -0.04115,0.009 -0.07379,0.0256 z m -0.217078,-0.18304 c -0.0099,-0.0227 -0.02695,-0.0326 -0.04966,-0.0326 -0.01558,0 -0.02978,0.01 -0.04112,0.0326 0.01135,0.0227 0.02551,0.0327 0.04112,0.0327 0.0227,0 0.03975,-0.01 0.04966,-0.0327 z m -0.198596,-0.0255 c 0,-0.0766 -0.04683,-0.1163 -0.141896,-0.1163 -0.09363,0 -0.140462,0.0368 -0.140462,0.10922 0,0.0823 0.04683,0.12341 0.140462,0.12341 0.09506,0 0.141896,-0.0383 0.141896,-0.11633 z m 0.241176,0.34192 c 0,-0.0454 -0.01987,-0.0667 -0.05817,-0.0667 -0.04541,0 -0.06668,0.0269 -0.06668,0.0823 0,0.0511 0.01844,0.0752 0.05817,0.0752 0.04397,0 0.06668,-0.0298 0.06668,-0.0908 z m 0.847002,0.62285 c 0,-0.0326 -0.02978,-0.0497 -0.09081,-0.0497 -0.05531,0 -0.08652,0.0142 -0.0922,0.0412 -0.07096,-0.061 -0.146148,-0.0908 -0.22419,-0.0908 -0.01135,-0.0284 -0.02978,-0.0525 -0.05817,-0.0753 0,-0.061 -0.01844,-0.0908 -0.05817,-0.0908 -0.03829,0 -0.06099,0.0213 -0.06667,0.0653 -0.07661,0.0114 -0.129096,0.0951 -0.15748,0.24975 -0.03264,0.19999 -0.05817,0.31353 -0.07518,0.34192 -0.05534,0.088 -0.0823,0.16881 -0.0823,0.23978 0,0.11633 0.05674,0.24543 0.170243,0.38729 0.113507,0.14189 0.228444,0.21139 0.344776,0.21139 0.06668,0 0.136179,-0.0213 0.20714,-0.0667 0.194376,-0.0326 0.292261,-0.17167 0.292261,-0.41567 0,-0.288 -0.08087,-0.52356 -0.24121,-0.70657 0.0213,0.006 0.04115,0.009 0.0582,0.009 0.04966,0 0.07376,-0.0156 0.07376,-0.0497 z m -0.847002,0.0994 c -0.01704,-0.0327 -0.04258,-0.0497 -0.07518,-0.0497 -0.02839,0 -0.04115,0.017 -0.04115,0.0497 0,0.034 0.02127,0.0511 0.06668,0.0511 0.03264,0 0.04966,-0.0171 0.04966,-0.0511 z m -0.290833,-0.30645 c -0.02839,-0.0284 -0.06671,-0.0426 -0.116366,-0.0426 -0.03972,0 -0.0695,0.0114 -0.0922,0.0341 0.02267,0.0213 0.05816,0.0326 0.107821,0.0326 0.0454,0 0.07804,-0.008 0.100745,-0.024 z m -2.495645,-1.72955 c 0.0227,-0.0113 0.03407,-0.0312 0.03407,-0.0581 0,-0.0284 -0.01421,-0.0411 -0.04115,-0.0411 -0.02839,0 -0.04258,0.0128 -0.04258,0.0411 0,0.0383 0.01704,0.0581 0.04966,0.0581 z m -0.539115,-0.0666 c -0.07236,0 -0.109255,0.0227 -0.109255,0.0666 0,0.0326 0.03121,0.0497 0.09224,0.0497 0.07236,0 0.10782,-0.0199 0.10782,-0.0582 0,-0.0383 -0.03121,-0.0581 -0.0908,-0.0581 z m -0.516454,-0.18304 c -0.04397,0 -0.06668,0.0341 -0.06668,0.0994 0,0.0837 0.02839,0.12481 0.08373,0.12481 0.04397,0 0.06668,-0.0326 0.06668,-0.0993 0,-0.0837 -0.02839,-0.12488 -0.08373,-0.12488 z m 0.24121,0.73207 c 0.01135,-0.017 0.01704,-0.0397 0.01704,-0.0667 0,-0.0496 -0.01135,-0.0865 -0.03404,-0.10782 -0.01561,0.0156 -0.02413,0.044 -0.02413,0.0823 0,0.061 0.01135,0.0922 0.03264,0.0922 h 0.0085 z m -0.54906,-0.28232 c 0,-0.034 -0.0213,-0.0511 -0.06528,-0.0511 -0.0454,0 -0.06667,0.0171 -0.06667,0.0511 0,0.0327 0.02125,0.0497 0.06667,0.0497 0.04397,0 0.06528,-0.017 0.06528,-0.0497 z m -0.357537,-0.3164 c -0.01561,-0.0113 -0.05248,-0.017 -0.107826,-0.017 -0.07661,0 -0.116332,0.0142 -0.116332,0.0412 0,0.0227 0.02835,0.034 0.08369,0.034 0.09363,0 0.140467,-0.0171 0.140467,-0.0497 v -0.009 z m 2.270019,3.64058 c -0.02695,-0.0114 -0.05817,-0.0156 -0.09077,-0.0156 -0.08941,0 -0.133387,0.0128 -0.133387,0.0411 0,0 0,0.003 0,0.009 0,0.0212 0.0227,0.0326 0.06668,0.0326 0.104998,0 0.157483,-0.0212 0.157483,-0.0667 z m -0.540549,-0.30785 c -0.04398,0 -0.06668,0.0198 -0.06668,0.0581 0,0.0341 0.01987,0.0511 0.05817,0.0511 0.04541,0 0.06668,-0.017 0.06668,-0.0511 0,-0.0383 -0.01841,-0.0581 -0.05817,-0.0581 z m -0.573156,-0.57318 c -0.01704,-0.0113 -0.04401,-0.0171 -0.08373,-0.0171 -0.09363,0 -0.140465,0.0199 -0.140465,0.0582 0.01561,0.0113 0.04397,0.017 0.0823,0.017 0.09506,0 0.141893,-0.0184 0.141893,-0.0581 z m -0.473874,-0.25683 c 0,-0.034 -0.01987,-0.0511 -0.05817,-0.0511 -0.04966,0 -0.07522,0.0199 -0.07522,0.0582 0,0.034 0.01987,0.0511 0.05817,0.0511 0.04966,0 0.07522,-0.0199 0.07522,-0.0582 z m 0.980355,1.0215 c -0.07093,0 -0.107828,0.0341 -0.107828,0.10078 0,0.0553 0.03121,0.0823 0.09224,0.0823 0.07661,0 0.116335,-0.0326 0.116335,-0.0993 0,-0.0553 -0.03407,-0.0838 -0.100745,-0.0838 z m 0.19155,0.54058 c -0.03832,0 -0.05817,0.0255 -0.05817,0.0752 0,0.0667 0.02551,0.0993 0.07519,0.0993 0.03829,0 0.05817,-0.0212 0.05817,-0.0667 0,-0.0723 -0.02551,-0.10782 -0.07518,-0.10782 z m -0.498006,-0.42421 c -0.03972,0 -0.05817,0.0312 -0.05817,0.0922 0,0.0823 0.02695,0.12487 0.0823,0.12487 0.03829,0 0.05817,-0.0312 0.05817,-0.0922 0,-0.0823 -0.02695,-0.12487 -0.0823,-0.12487 z m 0.165989,0.31643 c -0.06667,0 -0.100711,0.0269 -0.100711,0.0837 0,0.0383 0.02551,0.0582 0.07518,0.0582 0.06667,0 0.09932,-0.0255 0.09932,-0.0752 0,-0.044 -0.02413,-0.0666 -0.07379,-0.0666 z m 0.174532,0.20713 c -0.03975,0 -0.06103,0.0312 -0.06671,0.0922 -0.01704,-0.0171 -0.04111,-0.0255 -0.07518,-0.0255 -0.02695,0.0113 -0.04966,0.0255 -0.06667,0.0426 -0.01561,-0.006 -0.03264,-0.009 -0.04966,-0.009 -0.06668,0 -0.09932,0.044 -0.09932,0.13195 -0.03407,0.0171 -0.04966,0.0397 -0.04966,0.0667 0,0.0554 0.04398,0.0724 0.131956,0.0497 0.03404,0.0114 0.06099,0.017 0.08369,0.017 0.06103,0 0.08938,-0.0496 0.08373,-0.14897 l 0.04966,-0.034 c 0.01558,0.0724 0.04397,0.10786 0.08226,0.10786 0.04541,0 0.06668,-0.0383 0.06668,-0.11633 0,-0.11637 -0.02978,-0.1745 -0.09077,-0.1745 z m -0.515022,-0.0653 c 0.02695,-0.006 0.04115,-0.0171 0.04115,-0.0341 0,-0.0326 -0.0227,-0.0497 -0.06668,-0.0497 -0.0227,0 -0.03832,0.0142 -0.04965,0.0411 -0.04401,0.0113 -0.06671,0.0369 -0.06671,0.0752 0,0.0553 0.02695,0.0837 0.0823,0.0837 0.07805,0 0.09789,-0.0397 0.0596,-0.11634 z m -1.405996,-1.38898 c -0.07661,0 -0.116366,0.0227 -0.116366,0.0667 0,0.0326 0.02556,0.0497 0.07522,0.0497 0.08369,0 0.124838,-0.0227 0.124838,-0.0667 0,-0.0327 -0.02838,-0.0497 -0.08369,-0.0497 z m -0.131955,0.15749 v -0.009 c 0,-0.0652 -0.04823,-0.0993 -0.141891,-0.0993 -0.03829,0 -0.05817,0.017 -0.05817,0.0496 0,0.0553 0.04966,0.0838 0.148973,0.0838 l 0.05109,-0.0256 z m 1.471279,1.78767 c 0.03829,0 0.05817,-0.0327 0.05817,-0.0994 0,-0.10071 -0.03121,-0.15036 -0.09224,-0.15036 -0.04966,0 -0.07518,0.0397 -0.07518,0.11633 0.03403,0.0894 0.0695,0.13339 0.109251,0.13339 z m -0.10074,-0.38168 c 0.0057,-0.0227 0.0085,-0.0425 0.0085,-0.0582 0,-0.0454 -0.05249,-0.0667 -0.157483,-0.0667 -0.0227,-0.0397 -0.05534,-0.0582 -0.09931,-0.0582 -0.02839,0 -0.05391,0.003 -0.07519,0.009 -0.01704,-0.006 -0.03689,-0.009 -0.05817,-0.009 -0.104994,0 -0.158909,0.0412 -0.158909,0.12488 0,0.0879 0.05109,0.13192 0.150403,0.13192 0.04398,0 0.08369,-0.0241 0.116334,-0.0738 h 0.02551 c 0.0043,0.0653 0.04397,0.0993 0.11633,0.0993 0.03833,0 0.07097,-0.0142 0.09932,-0.0411 0.0057,0.0383 0.01987,0.0582 0.04115,0.0582 0.04397,0 0.06667,-0.0284 0.06667,-0.0838 0,-0.0326 -0.02551,-0.044 -0.07518,-0.0326 z m -1.945156,-1.71245 h -0.01558 c -0.03407,0 -0.05109,0.0156 -0.05109,0.0496 0.0227,0.0269 0.03972,0.0412 0.05109,0.0412 0.01558,0 0.0241,-0.017 0.0241,-0.0496 0,0 -0.0028,-0.0142 -0.0085,-0.0411 z m 0.183044,0.27378 c 0,-0.0283 -0.01704,-0.0411 -0.04966,-0.0411 -0.0227,0.01 -0.03264,0.027 -0.03264,0.0497 0,0.0269 0.01278,0.0411 0.04115,0.0411 0.02695,-0.0113 0.04115,-0.027 0.04115,-0.0497 z m 0.665387,0.54058 c 0,-0.0723 -0.05248,-0.10786 -0.15748,-0.10786 -0.0227,-0.034 -0.06099,-0.051 -0.116334,-0.051 -0.106395,0 -0.158909,0.0341 -0.158909,0.10075 0,0.0823 0.05816,0.10785 0.174498,0.0738 -0.0056,0.006 -0.0085,0.0142 -0.0085,0.0255 0,0.044 0.0454,0.0667 0.133384,0.0667 0.08938,0 0.133353,-0.0355 0.133353,-0.10782 z m 0.265303,0.38167 c 0,-0.0383 -0.01278,-0.0582 -0.04115,-0.0582 -0.05531,0 -0.08369,0.0369 -0.08369,0.10786 0,0.0454 0.01704,0.0667 0.05109,0.0667 0.04966,0 0.07375,-0.0383 0.07375,-0.11634 z m -0.183004,0.017 c 0.0454,-0.006 0.06668,-0.0326 0.06668,-0.0837 0,-0.1164 -0.03547,-0.17453 -0.107826,-0.17453 -0.03829,0 -0.05816,0.0426 -0.05816,0.12483 0,0.0284 0.0057,0.0497 0.01704,0.0667 l -0.04115,0.0412 c -0.01704,-0.0213 -0.03546,-0.0383 -0.05531,-0.0497 -0.01844,-0.0113 -0.0369,-0.0156 -0.05391,-0.0156 -0.02695,0 -0.04683,0.01 -0.0582,0.0327 -0.02127,-0.044 -0.04397,-0.0667 -0.06524,-0.0667 -0.02267,0 -0.04541,0.0255 -0.06668,0.0751 -0.0227,-0.006 -0.04258,-0.008 -0.05817,-0.008 -0.03975,0 -0.05816,0.017 -0.05816,0.0496 0,0.0723 0.0326,0.10783 0.09931,0.10783 0.02267,0 0.04397,-0.01 0.06668,-0.0327 0.01135,0.006 0.0213,0.009 0.03261,0.009 0.0227,0 0.03975,-0.017 0.04965,-0.0497 0.02839,0.0383 0.06671,0.0525 0.116369,0.0411 -0.0099,0.0227 -0.01561,0.044 -0.01561,0.0667 0,0.044 0.01844,0.0667 0.05817,0.0667 0.08798,0 0.131955,-0.0667 0.131955,-0.20006 z m 0.03403,0.32493 c 0.105003,-0.0171 0.157483,-0.0483 0.157483,-0.0922 0,-0.027 -0.02978,-0.0411 -0.09077,-0.0411 -0.13907,0 -0.208568,0.0326 -0.208568,0.0993 0.0057,0.006 0.0085,0.009 0.0085,0.009 0.0227,0.017 0.04965,0.0255 0.08369,0.0255 -0.01704,0.01 -0.02553,0.0212 -0.02553,0.0326 0.0227,0.0327 0.04683,0.0497 0.07519,0.0497 0.0227,0 0.03264,-0.0114 0.03264,-0.0326 0,-0.0227 -0.0099,-0.0397 -0.03264,-0.0496 z m -0.66539,-0.71504 v -0.009 c 0.0057,-0.0497 -0.0213,-0.0894 -0.0823,-0.11637 l -0.0085,-0.008 v -0.009 c 0.0057,-0.0837 -0.05534,-0.12481 -0.183009,-0.12481 -0.06103,0 -0.09223,0.0255 -0.09223,0.0751 0,0.0383 0.04258,0.078 0.124841,0.11633 v 0.0753 c -0.01558,0.0269 -0.0241,0.0496 -0.0241,0.0652 0,0.0667 0.0468,0.10071 0.140464,0.10071 0.100711,0 0.150368,-0.034 0.150368,-0.10071 0,-0.0156 -0.0085,-0.0383 -0.02551,-0.0652 z m 0.366051,0.56461 c -0.0057,-0.0227 -0.01704,-0.0354 -0.03264,-0.0411 -0.02267,0.006 -0.03404,0.0184 -0.03404,0.0411 0.01135,0.0227 0.0227,0.0327 0.03404,0.0327 0.0213,0 0.03264,-0.01 0.03264,-0.0327 z m 0.107826,0.12491 c -0.07236,0 -0.107826,0.0354 -0.107826,0.10782 0,0.0666 0.03264,0.0993 0.09932,0.0993 0.07236,0 0.107823,-0.0354 0.107823,-0.10782 0,-0.0667 -0.03264,-0.0993 -0.09931,-0.0993 z m -0.490892,-0.42422 c 0,-0.0497 -0.01844,-0.0753 -0.05817,-0.0753 -0.07661,0 -0.116363,0.0553 -0.116363,0.16745 0,0.0497 0.01987,0.0738 0.0582,0.0738 0.07801,0 0.116332,-0.0553 0.116335,-0.16596 z m 0.04255,0.15748 c -0.05531,0 -0.08369,0.0255 -0.08369,0.0752 0,0.0497 0.0255,0.0753 0.07518,0.0753 0.05534,0 0.08229,-0.0256 0.08229,-0.0753 0,-0.0496 -0.02413,-0.0752 -0.07379,-0.0752 z m 0.299373,0.42422 c 0.0057,-0.006 0.0085,-0.0114 0.0085,-0.0156 0,-0.0284 -0.01418,-0.0426 -0.04258,-0.0426 -0.02695,0 -0.04112,0.0142 -0.04112,0.0426 0.01132,0.0213 0.02551,0.0326 0.04112,0.0326 l -0.0085,0.0411 c 0.01704,0.0113 0.03121,0.017 0.04258,0.017 0.03264,0 0.04966,-0.0142 0.04966,-0.0411 -0.01135,-0.0227 -0.02839,-0.034 -0.04966,-0.034 z m 0.232667,0.28229 c 0.01135,-0.01 0.01561,-0.0241 0.01561,-0.0411 0,-0.0326 -0.01,-0.0582 -0.03264,-0.0752 0.0057,-0.01 0.0085,-0.0212 0.0085,-0.0326 0,-0.0497 -0.02835,-0.0752 -0.08369,-0.0752 -0.03264,0 -0.04683,0.0227 -0.04115,0.0667 -0.01135,0.017 -0.01704,0.0341 -0.01704,0.0497 0,0.0397 0.01704,0.0581 0.04966,0.0581 0.0227,0 0.0454,-0.01 0.06668,-0.0326 0,0.0383 0.01135,0.0667 0.03403,0.0823 z M 69.3286,232.01358 c -0.03407,0 -0.04966,0.0255 -0.04966,0.0752 0,0.0497 0.01844,0.0738 0.05817,0.0738 0.03264,0 0.04966,-0.0213 0.04966,-0.0653 0,-0.0553 -0.01987,-0.0837 -0.05817,-0.0837 z m -0.100743,-0.0667 c 0,-0.0496 -0.01844,-0.0752 -0.05817,-0.0752 -0.05959,0 -0.09081,0.0369 -0.09081,0.10925 0,0.0497 0.0227,0.0738 0.06668,0.0738 0.05534,0 0.0823,-0.0354 0.0823,-0.10783 z"
       class="fil1"
       id="_145361800-9" />
  </g>
</svg>
