<?xml version="1.0" encoding="UTF-8" standalone="no"?>
<!-- Created with Inkscape (http://www.inkscape.org/) -->

<svg
   xmlns:dc="http://purl.org/dc/elements/1.1/"
   xmlns:cc="http://creativecommons.org/ns#"
   xmlns:rdf="http://www.w3.org/1999/02/22-rdf-syntax-ns#"
   xmlns:svg="http://www.w3.org/2000/svg"
   xmlns="http://www.w3.org/2000/svg"
   xmlns:sodipodi="http://sodipodi.sourceforge.net/DTD/sodipodi-0.dtd"
   xmlns:inkscape="http://www.inkscape.org/namespaces/inkscape"
   width="21.073555mm"
   height="30.02232mm"
   viewBox="0 0 21.073555 30.02232"
   version="1.1"
   id="svg4539"
   inkscape:version="0.92.2 5c3e80d, 2017-08-06"
   sodipodi:docname="logo-WhiteBlack-noText.svg">
  <defs
     id="defs4533" />
  <sodipodi:namedview
     id="base"
     pagecolor="#ffffff"
     bordercolor="#666666"
     borderopacity="1.0"
     inkscape:pageopacity="0.0"
     inkscape:pageshadow="2"
     inkscape:zoom="0.49497475"
     inkscape:cx="34.48923"
     inkscape:cy="19.647263"
     inkscape:document-units="mm"
     inkscape:current-layer="layer1"
     showgrid="false"
     fit-margin-top="0"
     fit-margin-left="0"
     fit-margin-right="0"
     fit-margin-bottom="0"
     inkscape:window-width="1366"
     inkscape:window-height="703"
     inkscape:window-x="0"
     inkscape:window-y="0"
     inkscape:window-maximized="1" />
  <metadata
     id="metadata4536">
    <rdf:RDF>
      <cc:Work
         rdf:about="">
        <dc:format>image/svg+xml</dc:format>
        <dc:type
           rdf:resource="http://purl.org/dc/dcmitype/StillImage" />
        <dc:title></dc:title>
      </cc:Work>
    </rdf:RDF>
  </metadata>
  <g
     inkscape:label="Livello 1"
     inkscape:groupmode="layer"
     id="layer1"
     transform="translate(7.138449,-154.71319)">
    <g
       style="clip-rule:evenodd;display:inline;fill-rule:evenodd;image-rendering:optimizeQuality;shape-rendering:geometricPrecision;text-rendering:geometricPrecision"
       id="g5110"
       transform="matrix(0.02880117,-4.1245631e-4,4.1245631e-4,0.02880117,-7.4909982,154.86534)">
      <metadata
         id="metadata5100" />
      <g
         id="g5108">
        <path
           id="path5102"
           class="fil0"
           d="m 368.883,0 h 0.008 v 0.11698 c 54.4357,0.002363 103.655,22.004 139.215,57.5635 35.5559,35.5583 57.554,84.7713 57.5587,139.2 h 0.1158 v 0.0177 0.0555 h -0.1158 c -0.002,8.48162 -0.54118,16.8214 -1.581,24.9817 -0.12289,0.96656 -0.19969,1.61645 -0.25286,2.07137 104.027,65.9529 169.307,183.297 169.307,307.605 0,56.012 -11.6353,112.267 -11.6058,168.788 0.0224,44.4925 11.4888,13.1809 11.4888,53.3888 h 0.11579 v 0.007 0.008 h -0.11579 c -0.004,62.2025 -50.8826,113.084 -113.084,113.096 v 0.1158 h -0.0177 -0.008 v -0.1158 c -24.3412,-0.004 -46.8474,-7.62967 -65.251,-20.6014 l -0.60971,37.6048 c 33.4408,34.9072 51.2867,62.8795 56.734,84.4936 5.87852,23.3333 0.20087,41.48765 -14.9947,54.85175 -11.776,10.3604 -28.7262,15.706 -49.6277,16.5627 -41.2832,1.6885 -106.335,-14.6213 -177.279,-43.42905 -70.944,28.80775 -135.998,45.11755 -177.28,43.42905 -20.9016,-0.8555 -37.8506,-6.2011 -49.6277,-16.5615 -15.1932,-13.364 -20.8744,-31.51955 -14.9935,-54.85175 5.44605,-21.6152 23.2967,-49.5828 56.7328,-84.4889 l -0.60971,-37.6084 c -18.4013,12.9694 -40.9063,20.5943 -65.2392,20.5991 v 0.1158 h -0.0177 -0.008 v -0.1158 C 55.634891,866.89524 4.7546913,816.01617 4.7436913,753.81297 h -0.115798 v -0.0165 -0.007 c 0,-40.462 11.4887997,-8.85028 11.4887997,-53.7232 0,-12.5464 -11.4096997,-168.453 -11.4887997,-168.453 v -0.0165 h 0.079168 c 0,-0.53409 0.015361,-1.06818 0.04372,-1.59754 0.532907,-123.974 64.3836997,-239.417 169.1769987,-305.969 -1.27969,-9.06533 -1.94375,-18.1259 -1.94375,-27.1298 v -0.008 h 0.1158 c 0.002,-54.4369 22.004,-103.655995 57.5646,-139.214995 35.5571,-35.5547 84.7689,-57.5540002 139.199,-57.5575002 v -0.11698 h 0.0177 z"
           inkscape:connector-curvature="0"
           style="fill:#000000;fill-rule:nonzero" />
        <path
           id="path5104"
           class="fil2"
           d="m 368.883,29.5403 c 92.4139,0 167.358,74.945 167.358,167.358 0,14.4429 -1.83386,28.4591 -5.27708,41.8303 102.934,57.0967 172.635,166.859 172.635,292.883 l -10e-4,0.18906 c -1.6389,30.7928 -25.01,222.001 0,221.987 v 0.007 c 0,46.207 -37.4713,83.6795 -83.6771,83.6795 -46.2082,0 -83.6795,-37.4725 -83.6795,-83.6795 v -0.007 l 5.90806,-222.176 c 0,-3.26361 -2.64563,-5.90806 -5.90806,-5.90806 -3.26243,0 -5.90806,2.64445 -5.90806,5.90806 l -5.90806,364.255 c 137.817,137.81704 11.8161,137.81704 -149.634,71.1213 v -213.191 c 0,-3.26361 -2.64563,-5.90925 -5.90806,-5.90925 -3.26243,0 -5.90806,2.64563 -5.90806,5.90925 v 213.191 c -161.449,66.69614 -287.449002,66.69614 -149.632,-71.1213 l -5.90806,-364.255 c 0,-3.26361 -2.64563,-5.90806 -5.90806,-5.90806 -3.26243,0 -5.90806,2.64445 -5.90806,5.90806 l 5.90806,222.176 v 0.007 c 0,46.207 -37.4701,83.6795 -83.6771,83.6795 -46.207002,0 -83.679502,-37.4725 -83.679502,-83.6795 v -0.007 c 25.01,0 1.63772,-191.366 0,-222.176 0,-126.024 69.701002,-235.786 172.634002,-292.883 -3.44322,-13.3711 -5.27708,-27.3874 -5.27708,-41.8303 0,-92.4128 74.9438,-167.358002 167.357,-167.358002 z m 76.8048,133.885 c 18.4828,0 33.4704,14.9899 33.4704,33.4727 0,18.4816 -14.9876,33.4704 -33.4704,33.4704 -18.4828,0 -33.4727,-14.9888 -33.4727,-33.4704 0,-18.4828 14.9899,-33.4727 33.4727,-33.4727 z m -153.61,0 c 18.4828,0 33.4704,14.9899 33.4704,33.4727 0,18.4816 -14.9876,33.4704 -33.4704,33.4704 -18.4828,0 -33.4727,-14.9888 -33.4727,-33.4704 0,-18.4828 14.9899,-33.4727 33.4727,-33.4727 z"
           inkscape:connector-curvature="0"
           style="fill:#ffffff" />
        <path
           id="path5106"
           class="fil0"
           d="m 480.182,573.338 c -1.31986,1.31868 -2.01465,2.98712 -2.01465,4.86234 -2.70944,1.66844 -4.09902,3.95958 -4.09902,6.9467 l 2.08437,-1.66726 c -5.97424,4.1002 -9.10078,9.38083 -9.37846,15.9092 -2.15408,2.7118 -5.83599,6.39253 -10.9772,10.9784 -0.83422,-0.27768 -1.66726,-0.41829 -2.43176,-0.41829 -6.53077,0 -9.10078,2.7118 -7.78092,8.13068 -1.8764,0.27768 -4.16873,0.41474 -6.87817,0.41474 l 0.41711,-2.01464 -2.50147,-0.83186 c -1.59754,0.55417 -2.43176,1.25015 -2.43176,2.08318 l 0.83422,1.18043 c -3.26598,0.27768 -7.85064,1.52901 -13.8261,3.68309 l -7.36381,1.25133 c -0.55654,-1.9473 -1.04218,-2.85005 -1.59754,-2.85005 -0.27886,0.48682 -0.41711,1.73697 -0.41711,3.61455 h -1.25133 c 0,-2.9883 -0.90275,-4.44641 -2.84769,-4.44641 -1.59872,0 -2.43176,0.90275 -2.43176,2.84651 0,0.8354 0.27768,1.73697 0.83304,2.85005 l -23.2045,4.86234 c 0.55654,-0.55654 1.25133,-1.45929 2.01583,-2.84769 -0.76451,-1.11308 -2.15408,-1.46047 -4.03048,-1.18279 0.55654,-0.55418 0.7645,-1.25015 0.7645,-2.082 0,-1.04218 -0.34739,-2.15526 -1.18043,-3.26598 v -0.76451 c 0,-1.66844 -1.25133,-3.12773 -3.68309,-4.51494 -0.55536,-1.04336 -1.73697,-2.29351 -3.68191,-3.68309 -1.31986,0.83304 -2.29233,2.2238 -2.84769,4.09784 -1.04218,-1.10953 -2.29351,-1.59636 -3.61337,-1.59636 -3.2648,0 -4.93205,1.87522 -4.93205,5.69655 0,2.70944 1.52783,4.03048 4.51494,4.03048 1.8764,0 3.40423,-0.69478 4.44641,-2.01583 0.83422,2.1529 2.15408,3.26598 4.09902,3.26598 0.83422,2.1529 2.15408,2.98712 4.0293,2.43058 v 0.83422 c 0,1.041 0.55654,1.73697 1.66844,2.01465 l -6.53077,1.25133 c -1.31986,-1.66844 -2.84887,-2.71062 -4.44641,-3.26598 -0.83422,-1.66844 -2.2238,-2.43294 -4.09902,-2.43294 -1.8764,0 -3.12655,0.76451 -3.68191,2.43294 l -2.01465,1.18161 h -1.59872 c -2.50029,0 -3.68191,0.83304 -3.68191,2.43058 0,0.83422 0.55536,1.66844 1.59754,2.50029 l -0.41593,1.18279 h -5.69774 c -2.70944,0 -5.27945,-0.27768 -7.71121,-0.83422 0.83304,-0.76332 1.25015,-2.01465 1.25015,-3.61337 h 2.43176 c 1.8764,0.27768 3.40423,-0.13824 4.44641,-1.25015 1.1119,-1.04218 1.66726,-2.57001 1.66726,-4.44641 1.04218,0 1.73697,-0.41592 2.01465,-1.25015 0.27768,-0.83421 0.27768,-1.73697 0,-2.84887 1.38958,-1.59754 2.01465,-3.26598 2.01465,-4.86234 0,-1.39076 -0.55536,-2.70944 -1.59754,-4.1002 1.04218,0.55654 2.15408,0.83422 3.2648,0.83422 4.86352,0 7.29528,-1.8764 7.29528,-5.69656 0,-1.39076 -1.25015,-3.47394 -3.82134,-6.32281 -2.63972,-2.84887 -4.58466,-4.23726 -5.90452,-4.23726 -5.21091,0 -7.22556,2.01465 -6.11485,6.04395 -0.55536,0.83304 -0.83304,1.66726 -0.83304,2.50147 0,1.87522 1.1119,3.47394 3.2648,4.86234 -0.83303,-0.27768 -1.66726,-0.41592 -2.43176,-0.41592 -6.25191,0 -9.37846,2.43058 -9.37846,7.29528 0,1.94375 0.97247,3.54248 2.84887,4.93087 l -2.01465,1.18161 c -0.27886,0 -0.83421,0 -1.66844,0 -2.98712,0 -3.82015,1.8055 -2.43058,5.35034 -0.55654,0.7645 -0.83421,1.59754 -0.83421,2.43058 l 0.83421,2.01465 -1.25133,-0.41593 -1.18043,-0.83422 c -1.1119,-1.87522 -2.43176,-2.43058 -4.09902,-1.59754 -1.8764,-0.55536 -4.72409,-1.59754 -8.54542,-3.2648 2.43176,0 4.51494,-0.83422 6.11367,-2.43294 0,1.31986 0.27768,2.57119 0.83304,3.68309 0.83422,-1.66844 1.04218,-3.68309 0.83422,-6.11485 0.20796,-0.83304 0.34739,-1.52783 0.34739,-2.01465 0,-5.76627 -2.98712,-8.3351 -8.89282,-7.78092 -1.66726,-0.83304 -3.12655,-1.18043 -4.51612,-1.18043 -4.09902,0 -6.11367,1.73697 -6.11367,5.28063 0,2.1529 1.38958,4.0293 4.09902,5.69537 l 1.59754,2.43176 c -4.58466,-1.59636 -7.85064,-2.98712 -9.72586,-4.09783 -4.09902,-2.15526 -6.53077,-4.30816 -7.36381,-6.46106 1.3884,-0.55536 2.43058,-1.25015 3.2648,-2.08437 1.38958,0.55654 2.57001,0.83422 3.68191,0.83422 5.1412,0 6.87817,-2.71062 5.28063,-8.1295 5.41888,0 8.12832,-2.29351 8.12832,-6.9467 0,-0.76451 -0.27767,-1.73697 -0.83421,-2.85005 0.55654,-1.87404 0.69478,-3.68072 0.4171,-5.27945 -1.04218,0.83422 -2.01465,1.8764 -2.84887,3.2648 -1.87522,-1.11072 -3.68191,-1.66607 -5.27945,-1.66607 -2.70944,0 -4.72409,1.94375 -6.11367,5.76627 -0.27767,-1.66726 -1.59754,-3.05801 -4.0293,-4.30816 -2.50147,-1.25133 -4.51612,-1.80669 -6.11367,-1.80669 -1.1119,0 -2.08437,0.34857 -2.84887,1.18279 v 0.83185 c 0,1.59872 1.18043,3.05683 3.61219,4.23845 2.50147,1.25015 4.51612,1.8764 6.11367,1.8764 1.66844,0 2.70944,-0.41829 3.26598,-1.25015 -0.55654,1.11072 -0.4171,2.1529 0.41711,3.2648 -1.1119,0.55654 -2.01465,1.25133 -2.84887,2.01465 -1.8764,0 -2.98712,0.55654 -3.2648,1.66726 h -2.01583 -1.66726 c -1.31986,-2.98712 -3.47276,-7.50324 -6.46106,-13.4775 0.48683,-1.04336 0.76451,-2.15408 0.76451,-3.19626 0,-1.66844 -0.76451,-2.98712 -2.43176,-4.1002 0.83422,-0.55535 1.25015,-1.10953 1.25015,-1.59636 0,-1.66844 -1.11072,-2.50266 -3.2648,-2.50266 -0.83422,0 -1.25015,0.27886 -1.25015,0.83422 0,0.8354 0.41593,1.80669 1.25015,2.85005 h -0.83422 c -0.83304,-2.43176 -2.01465,-7.71239 -3.68191,-15.8419 l 1.25133,-2.08437 c -0.55654,-1.041 -1.38958,-1.73697 -2.43176,-2.01347 l -2.43176,-10.1441 c 1.87522,1.32104 3.61219,2.01465 5.27945,2.01465 3.26598,0 4.86352,-1.66607 4.86352,-4.86352 0,-4.65437 -2.84887,-6.9467 -8.54542,-6.9467 -1.59754,0 -2.98712,0.69597 -4.0293,2.01465 -1.66726,-5.69656 -3.68191,-14.1026 -6.11367,-25.2192 6.18338,-6.2531 9.30993,-12.6433 9.30993,-19.1055 0,-8.19803 -3.61337,-20.9122 -10.9772,-38.2795 1.94493,-10.0744 2.57001,-17.5091 2.08437,-22.3715 v 0.34622 c 2.43176,-7.57059 4.30698,-12.8512 5.69656,-15.8383 2.43176,-4.65674 5.83599,-9.24021 10.143,-13.8272 20.6345,-0.55536 33.904,-6.66784 39.8783,-18.341 8.1295,-0.55418 13.9643,-2.01347 17.508,-4.44641 16.8132,-4.37551 28.4851,-6.53077 35.0147,-6.53077 7.08731,0 10.3521,0.14061 9.79675,0.41829 21.3978,0 38.0019,3.47394 49.6738,10.5589 1.59754,5.14238 4.86352,12.3668 9.72704,21.607 2.1529,9.1705 7.22438,14.1037 15.075,14.5906 -0.27768,0.27768 -1.87522,4.23845 -4.86234,11.809 0,2.22498 -0.41711,5.21209 -1.25133,8.96372 -18.9661,7.36381 -33.3475,10.9772 -43.1431,10.9772 -6.2531,0 -12.5062,-2.70944 -18.7581,-8.1295 -8.68486,-7.57178 -13.8261,-11.8114 -15.4236,-12.5735 h 0.41711 c -2.43176,-1.9473 -6.53077,-2.84887 -12.2273,-2.84887 -17.3697,0 -25.2192,5.14002 -23.6216,15.4224 v -0.76451 c -0.27768,4.0293 -0.97247,10.1441 -2.01465,18.2713 -0.55654,2.70944 -2.6409,5.90688 -6.32281,9.58879 -3.68191,3.68191 -5.48859,7.36499 -5.48859,11.1851 -1.94493,4.1002 -2.84769,7.98889 -2.84769,11.8102 0,3.26598 1.25015,7.50324 3.82134,12.8536 2.63972,5.28063 5.41888,7.92035 8.40599,7.92035 0.27768,9.23903 1.18043,17.3685 2.84887,24.3861 -0.55654,-0.7645 -1.25133,-1.18279 -2.08437,-1.18279 -3.75162,0 -5.69774,2.15526 -5.69774,6.53077 0,2.43176 1.1119,3.61337 3.26598,3.61337 3.2648,0 4.86234,-2.15408 4.86234,-6.46224 0.55654,1.8764 0.97365,3.75162 1.25133,5.69774 -0.55654,1.87522 -0.83422,3.47394 -0.83422,4.86234 0,4.30816 1.94612,7.0176 5.69774,8.1295 2.22261,4.09783 4.7938,7.08613 7.78092,8.96253 0.27768,1.1119 1.04218,1.87522 2.43176,2.43058 0,2.98712 0.97247,6.80964 2.84769,11.3955 0.55654,-0.83422 0.83422,-2.01465 0.83422,-3.68427 0,-1.59636 -0.41711,-4.16755 -1.25015,-7.71121 4.09783,7.08731 10.4206,9.38083 19.1043,6.94788 0,0.55536 0,1.04218 0,1.59754 0,2.43176 1.1119,3.68191 3.26598,3.68191 2.43176,0 3.68191,-1.11072 3.68191,-3.2648 0,-1.11072 -0.55536,-2.29351 -1.59754,-3.68191 8.40599,-3.26598 13.5472,-5.83599 15.4236,-7.71121 5.1412,-0.55654 7.78092,-4.44641 7.78092,-11.8114 0,-2.1529 -0.55654,-5.35034 -1.66726,-9.58643 -1.1119,-4.16991 -1.59872,-7.78092 -1.59872,-10.7704 -3.54248,0.55654 -8.54542,0.83422 -15.075,0.83422 -2.43176,-7.64149 -5.69774,-11.3931 -9.79675,-11.3931 -1.87522,0 -4.58466,0.69479 -8.12832,2.01465 -5.1412,-13.8249 -7.29528,-26.4693 -6.53077,-37.8648 v -2.01465 c 1.94612,-2.70826 5.97542,-5.27945 12.2273,-7.71002 0.83422,0.20678 2.01465,0.3474 3.68309,0.3474 5.97424,0 13.6854,-1.04218 23.2045,-3.2648 12.713,-3.19744 20.3556,-5.00295 22.7874,-5.28063 6.80845,-0.76451 17.0908,-2.01465 30.9157,-3.61337 1.94493,4.0293 8.8231,9.30993 20.7728,15.8407 2.70944,12.2273 4.09902,30.4289 4.09902,54.5373 0,11.9497 -0.69479,19.9385 -2.08437,24.0387 z m -54.9545,-170.56 c 1.1119,-0.55654 1.66844,-1.52901 1.66844,-2.84887 0,-1.38958 -0.69479,-2.01583 -2.01583,-2.01583 -1.3884,0 -2.08318,0.62625 -2.08318,2.01583 0,1.8764 0.83304,2.84887 2.43058,2.84887 z m -26.3996,-3.26598 c -3.54366,0 -5.34916,1.11072 -5.34916,3.26598 0,1.59636 1.52783,2.43176 4.51494,2.43176 3.54366,0 5.28063,-0.97247 5.28063,-2.85005 0,-1.87404 -1.52901,-2.84769 -4.44641,-2.84769 z m -25.2889,-8.96135 c -2.15408,0 -3.2648,1.66726 -3.2648,4.86116 0,4.1002 1.3884,6.11485 4.09902,6.11485 2.1529,0 3.2648,-1.59754 3.2648,-4.86352 0,-4.09783 -1.38958,-6.11248 -4.09902,-6.11248 z m 11.8102,35.8478 c 0.55654,-0.83304 0.83422,-1.94493 0.83422,-3.26598 0,-2.43058 -0.55536,-4.23726 -1.66726,-5.27945 -0.7645,0.76332 -1.18161,2.15408 -1.18161,4.0293 0,2.98712 0.55654,4.51612 1.59872,4.51612 h 0.41593 z m -26.8864,-13.8261 c 0,-1.66726 -1.04218,-2.50147 -3.19508,-2.50147 -2.2238,0 -3.26598,0.83422 -3.26598,2.50147 0,1.59754 1.04218,2.43294 3.26598,2.43294 2.1529,0 3.19508,-0.8354 3.19508,-2.43294 z m -17.508,-15.4921 c -0.76332,-0.55536 -2.57001,-0.83304 -5.27945,-0.83304 -3.75162,0 -5.69656,0.69479 -5.69656,2.01465 0,1.11072 1.38958,1.66726 4.09902,1.66726 4.58466,0 6.87699,-0.83422 6.87699,-2.43176 z m 111.16,178.272 c -1.32104,-0.55536 -2.84887,-0.7645 -4.44641,-0.7645 -4.37788,0 -6.53077,0.62389 -6.53077,2.01465 0,0 0,0.13824 0,0.4171 0,1.04218 1.1119,1.59754 3.2648,1.59754 5.1412,0 7.71239,-1.04218 7.71239,-3.2648 z m -26.4705,-15.0762 c -2.1529,0 -3.2648,0.97247 -3.2648,2.84887 0,1.66726 0.97247,2.49911 2.84769,2.49911 2.2238,0 3.26598,-0.83186 3.26598,-2.49911 0,-1.8764 -0.90275,-2.84887 -2.84887,-2.84887 z m -28.0669,-28.0692 c -0.83422,-0.55536 -2.15408,-0.83186 -4.09902,-0.83186 -4.58584,0 -6.87817,0.97247 -6.87817,2.84651 0.76332,0.55772 2.1529,0.8354 4.0293,0.8354 4.65437,0 6.94788,-0.90393 6.94788,-2.85005 z m -23.2045,-12.5747 c 0,-1.66726 -0.97365,-2.50029 -2.84887,-2.50029 -2.43176,0 -3.68191,0.97365 -3.68191,2.84887 0,1.66607 0.97247,2.50029 2.84769,2.50029 2.43176,0 3.68309,-0.97129 3.68309,-2.84887 z m 48.0066,50.0224 c -3.47394,0 -5.28063,1.66844 -5.28063,4.93323 0,2.70944 1.52901,4.0293 4.51612,4.0293 3.75162,0 5.69656,-1.59754 5.69656,-4.86352 0,-2.70826 -1.66726,-4.09902 -4.93205,-4.09902 z m 9.37846,26.4705 c -1.87522,0 -2.84769,1.25015 -2.84769,3.68191 0,3.26598 1.25015,4.86234 3.68191,4.86234 1.87522,0 2.84887,-1.041 2.84887,-3.26361 0,-3.54366 -1.25133,-5.28063 -3.68309,-5.28063 z m -24.3849,-20.7728 c -1.94612,0 -2.84887,1.52664 -2.84887,4.51612 0,4.0293 1.31986,6.11248 4.0293,6.11248 1.8764,0 2.84887,-1.52901 2.84887,-4.51612 0,-4.0293 -1.31986,-6.11248 -4.0293,-6.11248 z m 8.12832,15.4933 c -3.2648,0 -4.93323,1.31868 -4.93323,4.09665 0,1.87758 1.25133,2.85005 3.68309,2.85005 3.2648,0 4.86234,-1.25015 4.86234,-3.68191 0,-2.15526 -1.18043,-3.2648 -3.61219,-3.2648 z m 8.54542,10.1418 c -1.94493,0 -2.98712,1.52901 -3.26598,4.51612 -0.83304,-0.83422 -2.01465,-1.25133 -3.68191,-1.25133 -1.31986,0.55772 -2.43176,1.25133 -3.2648,2.08555 -0.7645,-0.27768 -1.59754,-0.41829 -2.43176,-0.41829 -3.2648,0 -4.86352,2.15526 -4.86352,6.46224 -1.66726,0.83304 -2.43176,1.94612 -2.43176,3.26598 0,2.70944 2.15408,3.54129 6.46106,2.43176 1.66844,0.55536 2.9883,0.83185 4.09902,0.83185 2.9883,0 4.37788,-2.43176 4.09902,-7.29292 l 2.43176,-1.66962 c 0.7645,3.54367 2.15408,5.28063 4.0293,5.28063 2.2238,0 3.26598,-1.87404 3.26598,-5.69656 0,-5.69655 -1.45929,-8.54542 -4.44641,-8.54542 z m -25.2192,-3.19508 c 1.31986,-0.27886 2.01465,-0.83422 2.01465,-1.66726 0,-1.59872 -1.1119,-2.43294 -3.2648,-2.43294 -1.1119,0 -1.8764,0.69597 -2.43176,2.01465 -2.15408,0.55654 -3.26598,1.80669 -3.26598,3.68191 0,2.7118 1.31986,4.09902 4.0293,4.09902 3.82134,0 4.7938,-1.94375 2.91858,-5.69537 z m -68.849,-68.0148 c -3.75162,0 -5.69774,1.10953 -5.69774,3.2648 0,1.59636 1.25133,2.43058 3.68309,2.43058 4.09902,0 6.11367,-1.11072 6.11367,-3.26598 0,-1.59636 -1.38958,-2.4294 -4.09902,-2.4294 z m -6.46106,7.71002 v -0.41593 c 0,-3.19508 -2.36204,-4.8647 -6.94788,-4.8647 -1.8764,0 -2.84887,0.8354 -2.84887,2.43176 0,2.71062 2.43176,4.1002 7.29528,4.1002 z m 72.0441,87.5386 c 1.8764,0 2.84887,-1.59872 2.84887,-4.86234 0,-4.93442 -1.52783,-7.36499 -4.51612,-7.36499 -2.43176,0 -3.68191,1.94375 -3.68191,5.69537 1.66726,4.37906 3.40423,6.53196 5.34916,6.53196 z m -4.93205,-18.6884 c 0.27768,-1.11308 0.41711,-2.08555 0.41711,-2.85005 0,-2.22261 -2.57119,-3.2648 -7.71239,-3.2648 -1.11072,-1.94493 -2.70944,-2.84769 -4.86234,-2.84769 -1.38958,0 -2.6409,0.13825 -3.68309,0.41711 -0.83304,-0.27886 -1.8055,-0.41711 -2.84769,-0.41711 -5.1412,0 -7.7821,2.01347 -7.7821,6.11248 0,4.30934 2.50147,6.46106 7.36499,6.46106 2.15408,0 4.09902,-1.18043 5.69656,-3.61101 h 1.25133 c 0.20796,3.19508 2.1529,4.86234 5.69656,4.86234 1.87522,0 3.47394,-0.69479 4.86352,-2.01465 0.27768,1.8764 0.97247,2.84887 2.01465,2.84887 2.1529,0 3.2648,-1.39076 3.2648,-4.1002 0,-1.59636 -1.25015,-2.1529 -3.68191,-1.59636 z m -95.2498,-83.8567 h -0.7645 c -1.66726,0 -2.50029,0.7645 -2.50029,2.43176 1.11072,1.31986 1.94493,2.01465 2.50029,2.01465 0.7645,0 1.18161,-0.83304 1.18161,-2.43058 0,0 -0.13943,-0.69479 -0.41711,-2.01583 z m 8.96253,13.4089 c 0,-1.38958 -0.83422,-2.01347 -2.43176,-2.01347 -1.1119,0.48564 -1.59754,1.31868 -1.59754,2.43058 0,1.32104 0.62507,2.01465 2.01465,2.01465 1.31986,-0.55536 2.01465,-1.31986 2.01465,-2.43176 z m 32.583,26.4705 c 0,-3.54366 -2.57001,-5.28063 -7.71121,-5.28063 -1.1119,-1.66844 -2.98712,-2.50029 -5.69656,-2.50029 -5.21091,0 -7.7821,1.66607 -7.7821,4.93205 0,4.03048 2.84887,5.28063 8.54542,3.61337 -0.27768,0.2765 -0.41593,0.69479 -0.41593,1.25015 0,2.15408 2.22261,3.26598 6.52959,3.26598 4.37788,0 6.53077,-1.73815 6.53077,-5.28063 z m 12.9918,18.6884 c 0,-1.8764 -0.62507,-2.84887 -2.01465,-2.84887 -2.70944,0 -4.09902,1.80669 -4.09902,5.27945 0,2.2238 0.83422,3.26598 2.50147,3.26598 2.43176,0 3.61219,-1.87522 3.61219,-5.69656 z m -8.96253,0.83422 c 2.2238,-0.27768 3.26598,-1.59872 3.26598,-4.09902 0,-5.69774 -1.73697,-8.54661 -5.28063,-8.54661 -1.87522,0 -2.84769,2.08555 -2.84769,6.11485 0,1.3884 0.27768,2.43176 0.83304,3.2648 l -2.01465,2.01347 c -0.83304,-1.041 -1.73697,-1.87522 -2.70944,-2.43058 -0.90275,-0.55654 -1.80669,-0.76451 -2.63972,-0.76451 -1.31986,0 -2.29233,0.48565 -2.84887,1.59872 -1.04218,-2.15526 -2.1529,-3.26598 -3.19508,-3.26598 -1.1119,0 -2.2238,1.25133 -3.26598,3.68191 -1.1119,-0.27767 -2.08437,-0.41592 -2.84769,-0.41592 -1.94612,0 -2.84887,0.83422 -2.84887,2.43058 0,3.54366 1.59754,5.28063 4.86352,5.28063 1.11072,0 2.1529,-0.48683 3.2648,-1.59872 0.55536,0.27768 1.04218,0.41829 1.59754,0.41829 1.1119,0 1.94612,-0.8354 2.43176,-2.43176 1.38958,1.87522 3.26598,2.57001 5.69774,2.01347 -0.48683,1.1119 -0.76451,2.15526 -0.76451,3.26598 0,2.15408 0.90276,3.2648 2.84769,3.2648 4.30816,0 6.46106,-3.2648 6.46106,-9.79439 z m 1.66844,15.9092 c 5.1412,-0.83422 7.71121,-2.36323 7.71121,-4.51612 0,-1.32104 -1.45929,-2.01465 -4.44641,-2.01465 -6.80845,0 -10.2127,1.59872 -10.2127,4.86352 0.27768,0.2765 0.41711,0.41711 0.41711,0.41711 1.11072,0.83303 2.43176,1.25015 4.09902,1.25015 -0.83422,0.48564 -1.25133,1.04218 -1.25133,1.59636 1.1119,1.59872 2.29351,2.43294 3.68309,2.43294 1.11072,0 1.59754,-0.55654 1.59754,-1.59872 0,-1.11072 -0.48683,-1.94493 -1.59754,-2.43058 z m -32.5842,-35.0147 v -0.41711 c 0.27768,-2.43294 -1.04218,-4.37788 -4.0293,-5.69774 l -0.41711,-0.41711 v -0.41593 c 0.27768,-4.1002 -2.70944,-6.11485 -8.96253,-6.11485 -2.98712,0 -4.51494,1.25015 -4.51494,3.68191 0,1.87758 2.08437,3.82134 6.11367,5.69892 v 3.68191 c -0.7645,1.31986 -1.18161,2.43058 -1.18161,3.1939 0,3.26598 2.29233,4.93323 6.87817,4.93323 4.93323,0 7.36381,-1.66726 7.36381,-4.93323 0,-0.76332 -0.41593,-1.87404 -1.25015,-3.1939 z m 17.9251,27.6497 c -0.27886,-1.11072 -0.83422,-1.73697 -1.59872,-2.01465 -1.11072,0.27768 -1.66726,0.90393 -1.66726,2.01465 0.55654,1.1119 1.1119,1.59872 1.66726,1.59872 1.04218,0 1.59872,-0.48683 1.59872,-1.59872 z m 5.27945,6.11485 c -3.54366,0 -5.27945,1.73579 -5.27945,5.27945 0,3.26598 1.59754,4.86234 4.86234,4.86234 3.54366,0 5.28063,-1.73697 5.28063,-5.27827 0,-3.26598 -1.59754,-4.86352 -4.86352,-4.86352 z m -24.0376,-20.7739 c 0,-2.43058 -0.90393,-3.68191 -2.84887,-3.68191 -3.75162,0 -5.69656,2.71062 -5.69656,8.19803 0,2.43058 0.97247,3.61337 2.84769,3.61337 3.82134,0 5.69774,-2.71062 5.69774,-8.1295 z m 2.08318,7.71121 c -2.70944,0 -4.09902,1.25015 -4.09902,3.68191 0,2.43294 1.25133,3.68427 3.68309,3.68427 2.70944,0 4.0293,-1.25133 4.0293,-3.68427 0,-2.43176 -1.18161,-3.68191 -3.61337,-3.68191 z m 14.6591,20.7728 c 0.27886,-0.27768 0.41711,-0.55536 0.41711,-0.7645 0,-1.38721 -0.69479,-2.082 -2.08437,-2.082 -1.31986,0 -2.01465,0.69478 -2.01465,2.082 0.55654,1.04336 1.25133,1.5999 2.01465,1.5999 l -0.41593,2.01465 c 0.83304,0.55417 1.52783,0.83185 2.08318,0.83185 1.59872,0 2.43176,-0.69479 2.43176,-2.01465 -0.55536,-1.10953 -1.38958,-1.66726 -2.43176,-1.66726 z m 11.3943,13.8272 c 0.55536,-0.48683 0.7645,-1.18161 0.7645,-2.01465 0,-1.5999 -0.48682,-2.85005 -1.59754,-3.68309 0.27768,-0.48564 0.41593,-1.04218 0.41593,-1.59754 0,-2.43176 -1.38958,-3.68191 -4.09902,-3.68191 -1.59754,0 -2.29233,1.11072 -2.01465,3.2648 -0.55536,0.83304 -0.83303,1.66726 -0.83303,2.43176 0,1.94375 0.83303,2.84887 2.43176,2.84887 1.11072,0 2.22261,-0.48801 3.2648,-1.59872 0,1.87522 0.55535,3.26598 1.66726,4.03048 z m -40.7125,-41.8953 c -1.66726,0 -2.43058,1.25133 -2.43058,3.68427 0,2.43176 0.90275,3.61101 2.84769,3.61101 1.59872,0 2.43176,-1.04218 2.43176,-3.19508 0,-2.70944 -0.97247,-4.1002 -2.84887,-4.1002 z m -4.93205,-3.2648 c 0,-2.43176 -0.90275,-3.68191 -2.84887,-3.68191 -2.9174,0 -4.44641,1.80787 -4.44641,5.35034 0,2.43176 1.1119,3.61219 3.26598,3.61219 2.70944,0 4.0293,-1.73697 4.0293,-5.28063 z"
           inkscape:connector-curvature="0"
           style="fill:#000000;fill-rule:nonzero" />
      </g>
    </g>
  </g>
</svg>
